<?xml version="1.0" standalone="no"?>
<!DOCTYPE svg PUBLIC "-//W3C//DTD SVG 20010904//EN"
 "http://www.w3.org/TR/2001/REC-SVG-20010904/DTD/svg10.dtd">
<svg version="1.0" xmlns="http://www.w3.org/2000/svg"
 width="2320.000000pt" height="3088.000000pt" viewBox="0 0 2320.000000 3088.000000"
 preserveAspectRatio="xMidYMid meet">
<metadata>
Created by potrace 1.15, written by Peter Selinger 2001-2017
</metadata>
<g transform="translate(0.000000,3088.000000) scale(0.100000,-0.100000)"
fill="#000000" stroke="none">
<path d="M0 15440 l0 -15440 1209 0 1209 0 7 87 c4 49 11 93 15 98 12 15 24
151 21 230 -1 39 2 83 8 97 6 15 13 65 16 110 3 46 11 101 16 123 6 22 15 71
19 109 5 38 16 87 25 108 8 21 15 52 15 69 0 16 8 62 17 102 9 40 16 77 14 82
-1 6 11 71 28 145 45 202 59 277 71 367 6 45 17 106 25 135 25 91 43 190 49
269 4 42 15 102 26 132 11 31 20 78 20 104 1 27 8 66 16 88 8 22 21 76 29 120
7 44 29 152 49 239 20 87 36 173 36 190 0 17 7 60 16 96 8 36 19 99 24 140 5
41 14 108 21 149 14 86 0 261 -26 326 -27 67 -49 105 -61 105 -22 0 -94 -79
-94 -103 0 -13 -4 -27 -9 -33 -5 -5 -12 -40 -14 -79 -5 -70 -18 -146 -31 -176
-4 -8 -3 -26 2 -40 10 -24 9 -28 -31 -107 -9 -19 -17 -42 -17 -53 0 -12 -7
-19 -20 -19 -12 0 -32 -11 -45 -24 -14 -14 -27 -20 -30 -15 -4 5 -17 9 -30 9
-13 0 -26 6 -28 13 -3 6 -6 1 -7 -13 l-1 -25 -11 23 c-6 12 -14 22 -19 22 -32
0 -87 -226 -61 -252 16 -16 15 -55 -1 -65 -28 -17 -57 -81 -57 -126 0 -27 -6
-52 -15 -61 -8 -8 -15 -21 -15 -29 0 -8 -9 -32 -19 -54 -11 -21 -22 -47 -26
-58 -6 -19 -7 -19 -26 5 -10 14 -26 50 -35 80 -8 30 -21 71 -28 90 -93 246
-98 279 -67 423 9 42 6 64 -30 205 -21 86 -44 188 -49 226 -6 39 -17 78 -26
87 -8 9 -14 33 -14 55 2 51 -7 106 -18 113 -68 47 -85 54 -103 43 -10 -7 -42
-12 -71 -12 -40 0 -49 -3 -40 -12 7 -7 12 -25 12 -41 l0 -30 -25 27 c-13 14
-30 26 -37 26 -7 0 -19 9 -26 20 -11 18 -9 20 21 28 23 6 33 15 35 31 3 21 1
23 -21 17 -32 -8 -57 2 -57 21 0 11 7 13 23 9 20 -5 25 0 37 37 12 34 20 42
40 42 26 0 31 20 15 58 -5 12 -3 17 9 17 19 0 96 -39 96 -49 0 -15 68 -81 83
-81 9 0 25 13 37 30 21 29 21 30 5 182 -9 84 -18 163 -22 175 -6 25 -43 33
-43 10 0 -7 -13 -26 -29 -41 -24 -24 -32 -26 -50 -17 -12 7 -21 17 -21 24 0 7
-11 28 -25 47 -14 19 -25 41 -25 50 0 9 -14 26 -30 38 -17 13 -30 28 -30 36 0
7 -18 32 -40 55 -35 36 -40 47 -40 89 0 26 0 57 0 69 0 12 -25 59 -55 104 -30
46 -55 92 -55 102 0 25 -40 98 -63 116 -10 7 -22 23 -28 35 -5 11 -13 28 -18
36 -5 8 -16 31 -25 50 -8 19 -28 45 -45 58 -16 12 -32 33 -35 47 -3 13 -15 26
-25 30 -11 3 -43 33 -71 65 -44 51 -51 64 -45 89 5 23 0 34 -22 57 -32 33 -53
75 -53 105 0 12 -8 23 -20 26 -11 3 -20 13 -20 23 0 9 -9 25 -19 34 -11 10
-23 35 -26 57 -5 29 -11 39 -26 39 -10 0 -19 7 -19 15 0 8 -3 14 -8 14 -27 -4
-32 4 -32 51 0 37 -4 50 -14 50 -8 0 -18 -4 -21 -10 -3 -5 1 -10 9 -10 19 0
20 -5 5 -31 -5 -11 -14 -17 -18 -14 -15 9 -6 83 14 105 18 20 18 20 -3 20 -24
0 -28 10 -11 27 7 7 7 13 1 17 -6 3 -13 2 -17 -4 -3 -5 -10 -10 -16 -10 -16 0
-10 29 11 50 l21 21 -23 -6 c-13 -3 -30 -1 -38 5 -13 9 -13 12 3 21 18 10 17
13 -9 40 -15 16 -34 29 -41 29 -15 0 -18 26 -3 35 6 4 4 12 -5 22 -9 9 -14 21
-11 28 2 7 -4 21 -15 31 -17 15 -18 20 -6 29 7 5 16 22 19 38 4 23 2 27 -16
27 -12 0 -30 6 -40 13 -16 12 -16 14 -2 26 15 13 12 35 -9 61 -7 8 -16 32 -19
53 -4 22 -14 41 -24 44 -23 9 -68 64 -64 80 2 7 -1 13 -7 13 -17 0 -50 65 -44
88 4 16 1 22 -11 22 -11 0 -16 9 -16 28 0 18 -10 38 -29 56 -20 19 -27 34 -23
51 4 25 -17 85 -30 85 -5 0 -8 7 -8 15 0 9 -7 18 -15 21 -8 4 -15 16 -15 28 0
12 -7 31 -15 42 -19 25 -19 68 0 84 19 16 19 30 0 30 -18 0 -19 12 -3 28 9 9
9 12 0 12 -20 0 -13 32 8 37 25 7 25 8 -5 41 -29 31 -31 42 -10 42 8 0 15 -4
15 -10 0 -5 5 -10 10 -10 15 0 12 17 -7 40 -21 24 -43 26 -43 5 0 -27 -18 -16
-22 15 -3 19 0 31 10 35 9 3 13 14 10 30 -5 22 -2 24 18 19 19 -5 22 -3 17 15
-3 12 -1 21 5 21 19 0 23 -18 10 -40 -11 -17 -11 -22 2 -30 9 -5 19 -5 27 1 8
8 16 2 27 -19 9 -17 19 -32 23 -34 13 -5 63 -76 63 -87 0 -6 4 -11 10 -11 5 0
22 -14 37 -30 26 -29 31 -41 68 -140 9 -25 29 -58 44 -75 16 -16 43 -52 61
-80 18 -27 52 -70 75 -95 22 -25 59 -73 80 -108 22 -34 59 -90 82 -125 24 -34
54 -86 69 -114 14 -29 30 -53 35 -53 5 0 9 -13 9 -28 0 -15 5 -33 11 -39 6 -6
11 -27 11 -47 0 -20 5 -34 11 -33 6 1 12 -2 12 -8 2 -14 14 -46 26 -67 5 -10
9 -25 9 -33 0 -9 8 -19 17 -22 25 -10 60 -51 80 -93 4 -8 16 -24 26 -37 25
-28 57 -15 57 23 0 51 -31 146 -65 199 -19 30 -35 66 -35 80 0 30 -51 188 -62
193 -5 2 -8 9 -8 15 0 13 -46 106 -72 147 -9 14 -19 36 -23 50 -5 14 -19 39
-32 57 -14 17 -23 40 -22 50 2 10 -1 28 -5 40 -4 12 -3 30 2 40 11 20 -7 113
-21 113 -4 0 -3 9 3 21 16 29 5 52 -20 44 -16 -5 -20 -2 -20 19 0 20 5 26 21
26 11 0 17 5 14 10 -4 6 -14 9 -23 8 -26 -4 -27 55 -3 106 23 47 26 66 10 66
-14 0 -39 26 -39 41 0 7 7 20 16 30 14 16 15 26 4 84 -10 54 -10 68 1 81 16
20 12 73 -7 95 -8 8 -14 22 -14 30 0 8 -5 20 -10 25 -8 8 -8 19 0 38 15 41 13
50 -20 69 -34 21 -39 37 -11 37 17 0 19 6 15 46 -2 25 -11 62 -21 81 -13 29
-14 39 -4 55 10 16 8 24 -13 48 -26 32 -42 83 -31 100 4 6 18 15 31 20 27 11
31 28 9 36 -8 4 -15 17 -15 30 0 12 -7 27 -15 31 -19 11 -9 54 11 46 8 -3 14
-2 14 2 0 10 -27 35 -39 35 -6 0 -16 18 -22 40 -7 22 -15 40 -19 40 -4 0 -10
11 -12 25 -4 17 1 29 16 39 59 42 59 42 46 81 -8 25 -9 40 -2 47 11 11 -16 68
-32 68 -5 0 -3 7 4 15 7 8 17 15 22 15 5 0 16 7 25 15 13 13 13 20 2 47 -7 18
-12 44 -11 60 2 27 -11 38 -23 18 -9 -15 -35 -12 -35 4 0 7 9 16 20 19 26 7
26 37 0 37 -23 0 -24 7 -10 46 8 19 8 30 0 38 -5 5 -10 18 -10 27 0 12 -9 19
-27 21 -17 2 -27 8 -25 17 2 8 -3 11 -13 8 -10 -4 -15 0 -15 12 0 10 -7 24
-15 31 -9 8 -13 21 -9 36 5 21 2 25 -24 30 -17 4 -33 11 -35 18 -7 17 -97 79
-97 66 0 -6 -11 1 -24 17 -18 20 -22 32 -15 45 5 9 9 32 9 51 0 19 7 40 15 47
18 15 20 40 3 40 -7 0 5 10 27 23 21 12 42 31 45 42 3 11 13 32 24 47 10 16
16 34 13 43 -4 8 -1 17 4 21 6 3 8 17 5 30 -4 14 0 37 10 55 10 21 14 43 10
64 -4 21 -2 36 5 40 16 11 43 77 40 99 -5 33 21 96 55 133 18 19 39 42 46 52
26 29 54 48 81 55 15 3 27 12 27 19 1 12 73 67 89 67 4 0 25 13 46 30 21 16
43 30 49 30 6 0 22 12 35 25 13 14 28 25 34 25 6 0 18 7 27 15 28 26 116 21
195 -10 39 -16 72 -31 75 -35 3 -5 33 -22 68 -40 71 -36 85 -53 102 -130 15
-66 30 -80 87 -80 37 0 45 4 55 25 6 14 22 32 35 40 12 9 23 22 23 29 0 8 9
16 20 19 14 4 20 14 20 35 0 26 4 31 35 36 19 4 39 16 45 26 9 17 19 19 64 15
l54 -5 55 57 c34 35 52 60 45 64 -15 10 0 29 17 22 10 -3 15 1 15 15 0 12 9
23 20 27 15 5 20 15 20 45 0 21 5 42 11 45 6 4 8 13 5 20 -2 7 2 21 9 32 8 10
15 28 15 39 0 13 8 24 20 27 12 3 20 14 20 26 0 14 13 29 35 43 20 11 53 46
75 78 41 61 102 120 124 120 7 0 21 9 31 20 10 11 22 20 27 20 5 0 37 19 71
43 65 46 344 186 412 207 22 7 92 37 155 68 63 30 126 58 140 62 126 39 285
115 335 160 11 9 30 23 42 29 12 6 42 28 66 49 116 98 279 193 405 237 280 99
489 158 702 200 19 4 80 23 135 42 55 19 120 41 144 49 24 8 50 19 57 25 7 6
28 15 46 19 80 20 283 117 328 156 26 22 110 54 143 54 17 0 71 20 121 44 50
25 125 54 166 66 170 48 216 60 233 60 29 0 74 -53 86 -101 41 -168 75 -271
116 -349 7 -14 37 -81 65 -150 58 -137 106 -237 125 -260 7 -8 32 -51 55 -95
22 -44 59 -109 82 -145 22 -36 54 -92 70 -125 17 -33 47 -85 68 -115 20 -30
54 -86 76 -124 54 -95 56 -97 87 -137 15 -20 27 -39 27 -43 0 -12 150 -217
191 -261 20 -22 42 -51 49 -65 19 -36 85 -115 160 -190 36 -36 78 -82 93 -103
48 -64 316 -327 443 -434 126 -106 348 -270 431 -318 26 -16 74 -48 105 -72
31 -23 59 -43 63 -43 3 0 25 -13 48 -28 23 -16 123 -68 222 -116 99 -49 205
-101 235 -116 30 -15 71 -33 90 -40 19 -7 80 -32 135 -55 55 -24 145 -54 200
-68 130 -34 157 -42 186 -58 22 -12 54 -20 204 -49 33 -7 83 -20 110 -30 28
-10 79 -26 115 -35 36 -9 79 -20 95 -25 80 -25 322 -53 483 -57 141 -4 187 -1
245 13 89 21 145 42 176 66 13 10 33 18 45 18 30 0 119 46 283 144 26 16 66
46 89 65 71 63 98 85 133 109 64 44 132 107 181 167 26 33 71 88 99 123 110
134 243 312 386 517 31 44 76 107 100 140 24 33 56 81 71 108 15 26 31 47 35
47 4 0 24 28 45 62 21 35 46 74 56 88 37 50 98 148 98 158 0 6 3 12 8 14 9 4
92 126 92 135 0 10 79 141 116 193 18 25 40 66 50 90 9 25 23 52 31 61 7 8 13
20 13 25 0 6 6 16 13 22 15 16 67 108 107 192 17 36 36 74 42 85 41 74 78 152
78 165 0 8 16 31 35 50 19 19 35 39 35 45 0 5 14 39 32 75 25 51 31 79 32 129
1 42 5 66 14 69 6 2 12 13 12 23 0 11 13 32 29 47 16 15 31 36 33 47 3 16 10
19 33 17 17 -2 31 -5 33 -7 1 -1 3 -29 3 -61 1 -62 24 -124 46 -124 28 0 11
-27 -24 -40 -37 -14 -45 -17 -70 -19 -19 -2 -16 -36 5 -54 26 -23 32 -22 75
19 44 41 55 38 88 -30 23 -49 24 -56 1 -56 -17 0 -48 -37 -38 -47 3 -3 12 2
21 11 23 23 27 20 20 -16 -3 -22 0 -40 10 -52 15 -20 15 -20 29 0 13 17 13 19
-5 22 -27 5 -13 22 18 22 18 0 24 -4 19 -15 -7 -19 -2 -19 34 0 26 13 30 13
44 -1 26 -26 19 -101 -14 -159 -40 -68 -60 -114 -60 -136 0 -11 -4 -19 -10
-19 -5 0 -10 -5 -10 -10 0 -6 -13 -39 -29 -73 -16 -34 -32 -78 -36 -97 -4 -19
-22 -58 -41 -87 -18 -28 -37 -66 -42 -85 -29 -95 -55 -152 -82 -174 -16 -14
-32 -35 -36 -47 -4 -12 -24 -49 -45 -83 -22 -34 -39 -68 -39 -77 0 -20 -33
-90 -71 -152 -31 -49 -63 -144 -53 -154 8 -8 41 37 74 100 16 31 47 75 69 98
22 23 57 69 77 104 21 34 46 68 56 75 10 7 18 21 18 31 0 10 7 25 16 32 9 8
25 32 36 54 10 22 27 54 36 72 25 45 110 153 122 153 5 0 10 6 10 13 0 28 82
174 115 204 19 18 35 37 35 42 0 6 5 10 12 8 6 -1 18 11 26 26 7 15 25 32 39
38 21 8 24 14 21 40 -6 36 22 58 42 34 21 -25 15 -207 -10 -305 -20 -80 -34
-191 -47 -372 -5 -78 -5 -78 20 -78 16 0 31 10 43 27 18 26 24 38 51 88 6 11
23 54 39 95 15 41 45 118 66 171 21 52 45 119 53 147 9 29 29 72 45 96 17 24
30 52 30 62 0 32 45 158 66 184 6 8 15 41 19 73 7 61 35 121 60 131 14 5 53
-5 160 -39 122 -39 123 -39 161 -24 52 20 72 52 88 144 8 44 26 115 40 159 14
43 26 84 26 91 0 19 40 50 110 87 87 47 150 63 240 63 67 0 87 -5 185 -47 61
-26 155 -63 210 -83 55 -19 163 -66 240 -104 77 -37 163 -76 190 -86 28 -9 59
-21 70 -26 21 -9 75 -24 295 -85 93 -25 161 -51 220 -83 47 -26 107 -58 133
-71 27 -14 58 -34 70 -45 12 -12 48 -39 81 -60 32 -22 70 -51 85 -64 14 -14
93 -67 176 -119 136 -85 183 -118 253 -180 12 -11 65 -41 116 -66 51 -26 103
-57 116 -71 13 -14 28 -25 34 -25 6 0 25 -11 41 -25 17 -14 47 -40 69 -58 127
-105 189 -187 220 -291 19 -63 110 -210 140 -226 15 -7 26 -19 26 -26 0 -14
61 -47 76 -42 14 5 55 -42 48 -54 -5 -8 -1 -9 10 -5 20 8 46 -13 46 -37 0 -9
14 -28 30 -43 17 -14 30 -32 30 -40 0 -7 9 -13 19 -13 11 0 23 -5 27 -11 3 -6
17 -8 31 -5 15 4 29 1 39 -9 19 -19 44 -20 44 -1 0 8 7 17 16 20 8 3 13 10 10
15 -8 12 15 20 45 14 25 -5 69 -58 69 -84 0 -8 4 -19 9 -25 14 -14 63 -245 57
-268 -8 -31 19 -99 43 -110 23 -10 51 6 51 30 0 7 13 20 29 28 16 9 31 22 34
31 8 19 31 19 47 0 7 -8 20 -15 29 -15 21 0 61 -52 61 -80 0 -11 6 -23 14 -26
8 -3 16 -18 20 -35 3 -17 12 -29 21 -29 10 0 15 -10 15 -33 0 -18 9 -51 21
-72 11 -22 27 -78 34 -124 9 -54 20 -88 31 -96 13 -9 15 -20 10 -48 -4 -21 -2
-38 4 -42 6 -4 8 -15 5 -25 -3 -10 0 -24 8 -31 20 -21 39 -74 36 -101 -1 -12
3 -42 10 -66 8 -28 9 -48 3 -55 -23 -28 8 -162 39 -170 16 -4 20 -12 17 -44
-3 -33 0 -38 20 -41 18 -3 22 1 22 22 0 14 4 27 9 30 9 6 34 -19 45 -44 6 -16
0 20 -10 58 -6 20 -3 22 36 22 33 0 41 -3 37 -14 -4 -9 2 -17 14 -21 16 -5 18
-9 8 -21 -10 -12 -8 -22 8 -52 23 -42 24 -97 2 -97 -21 0 -42 -44 -28 -61 6
-7 16 -12 22 -10 7 1 9 1 6 -1 -12 -7 4 -56 24 -76 20 -20 20 -20 0 -36 -11
-9 -18 -22 -16 -28 2 -6 -1 -14 -6 -18 -14 -8 -14 -128 0 -142 8 -8 8 -17 0
-31 -15 -28 -14 -32 10 -32 13 0 19 -5 15 -12 -3 -7 -9 -21 -12 -30 -4 -10
-12 -18 -19 -18 -14 0 -15 -85 -2 -107 4 -6 -5 -20 -20 -31 -24 -18 -26 -22
-15 -46 6 -14 9 -33 5 -42 -5 -13 1 -15 38 -13 41 4 44 3 50 -26 4 -16 7 -25
8 -20 1 6 6 2 12 -8 8 -14 7 -21 -4 -30 -8 -7 -18 -30 -22 -51 -4 -22 -13 -49
-21 -60 -20 -29 -18 -36 11 -36 28 0 32 -9 12 -29 -10 -10 -7 -16 12 -30 23
-18 23 -19 5 -29 -17 -10 -16 -12 14 -22 17 -7 32 -15 32 -19 0 -16 -13 -20
-32 -10 -11 6 -22 8 -25 5 -9 -8 21 -33 35 -28 6 2 12 -4 12 -13 0 -9 -6 -15
-12 -13 -14 5 -38 -15 -38 -31 0 -6 5 -11 10 -11 6 0 10 -10 11 -22 l0 -23 9
22 c13 32 23 29 17 -4 -3 -15 -1 -36 4 -45 7 -13 6 -16 -4 -13 -18 7 -52 -19
-43 -33 4 -7 14 -12 22 -12 10 0 14 -7 12 -17 -2 -10 -10 -17 -16 -15 -15 3
-16 -15 -1 -20 9 -3 9 -14 -1 -42 -7 -21 -10 -51 -6 -67 3 -16 1 -29 -4 -29
-6 0 -10 -5 -10 -11 0 -7 -20 -45 -45 -87 -25 -41 -45 -78 -45 -83 0 -5 -4 -9
-9 -9 -5 0 -11 -12 -14 -27 -3 -16 -29 -62 -56 -103 -28 -41 -51 -84 -51 -95
0 -11 -6 -29 -14 -40 -7 -11 -32 -56 -54 -100 -72 -143 -54 -203 30 -103 25
29 58 73 73 98 16 25 49 70 75 100 25 30 58 73 73 95 43 65 145 197 182 236
19 20 39 49 45 64 9 24 14 27 41 21 18 -3 41 -6 53 -7 20 -1 19 -1 -4 -12 -26
-13 -40 -60 -21 -72 18 -10 12 -25 -9 -25 -11 0 -20 -7 -20 -15 0 -8 5 -15 10
-15 22 0 -4 -103 -31 -122 -10 -7 0 -8 31 -4 34 5 41 3 27 -5 -9 -5 -17 -16
-17 -24 0 -8 -7 -18 -16 -23 -14 -8 -14 -10 0 -24 14 -14 14 -17 0 -22 -11 -4
-13 -12 -8 -28 4 -13 9 -59 10 -103 4 -101 10 -161 20 -176 4 -7 2 -10 -7 -7
-16 5 -50 -22 -43 -34 3 -5 0 -7 -7 -6 -7 2 -16 -12 -20 -31 -4 -19 -14 -38
-23 -43 -9 -5 -16 -16 -16 -24 0 -18 -24 -57 -62 -102 -15 -18 -28 -38 -28
-45 0 -7 -18 -34 -40 -62 -22 -27 -40 -55 -40 -61 0 -6 -7 -25 -16 -43 -20
-40 -13 -61 18 -54 83 18 279 101 293 123 3 5 14 6 25 3 22 -6 26 -33 8 -51
-8 -8 -8 -15 -1 -24 13 -16 1 -53 -18 -53 -8 0 -13 -9 -12 -22 1 -11 -4 -27
-12 -33 -12 -10 -13 -16 -4 -27 9 -10 8 -16 -4 -26 -12 -8 -14 -17 -7 -27 8
-12 13 -11 34 9 l24 23 -1 -33 c-2 -27 3 -36 26 -47 26 -13 37 -32 17 -32 -5
0 -10 -6 -10 -14 0 -11 -11 -14 -42 -13 -40 2 -43 0 -43 -23 0 -31 -23 -65
-51 -74 -12 -4 -27 -20 -34 -36 -7 -16 -21 -32 -31 -35 -10 -4 -19 -11 -19
-17 0 -6 -16 -26 -35 -45 -19 -19 -35 -38 -35 -42 0 -5 -7 -14 -15 -21 -20
-17 -19 -20 15 -59 18 -21 30 -45 30 -62 0 -18 8 -34 20 -41 11 -7 20 -19 20
-27 0 -12 -43 -77 -60 -91 -14 -11 -20 -44 -9 -51 7 -4 9 -15 5 -25 -7 -18 -8
-18 -20 -2 -11 15 -14 13 -25 -18 -12 -33 -31 -46 -31 -21 0 6 -7 0 -15 -16
-9 -17 -13 -51 -12 -90 2 -56 0 -62 -18 -62 -11 0 -44 -24 -73 -52 -50 -49
-52 -54 -39 -73 8 -12 13 -30 10 -40 -3 -12 3 -22 18 -31 30 -15 54 -39 40
-39 -5 0 -17 8 -26 17 -13 12 -21 14 -33 7 -22 -14 -27 -34 -8 -34 9 0 16 -7
16 -16 0 -8 -4 -13 -8 -10 -5 3 -25 -13 -45 -34 -20 -22 -41 -40 -46 -40 -14
0 -26 -51 -14 -59 5 -3 13 -14 16 -25 5 -13 11 -15 20 -8 21 17 122 30 135 17
3 -2 0 -10 -5 -17 -6 -7 -14 -27 -18 -45 -4 -19 -14 -35 -26 -38 -10 -4 -19
-11 -19 -16 0 -5 -11 -9 -25 -9 -14 0 -25 -5 -25 -11 0 -12 -57 -69 -70 -69
-18 0 -70 -33 -70 -44 0 -13 -63 -47 -178 -96 -96 -41 -71 -108 25 -69 65 26
79 35 99 58 29 34 65 40 166 28 34 -3 51 -1 59 9 16 20 63 17 82 -4 21 -23 21
-32 3 -32 -23 0 -29 -19 -13 -43 22 -33 65 -77 75 -77 5 0 17 -9 27 -20 11
-13 25 -18 37 -14 13 4 21 -2 28 -21 13 -34 13 -35 -6 -35 -8 0 -20 -13 -25
-29 -6 -16 -28 -41 -49 -56 -22 -15 -37 -31 -35 -36 3 -4 0 -11 -6 -14 -5 -4
-8 -13 -5 -21 3 -8 -3 -20 -14 -26 -11 -7 -20 -20 -20 -29 0 -9 -9 -28 -20
-42 -11 -14 -20 -31 -20 -39 0 -8 -5 -19 -12 -26 -9 -9 -8 -12 5 -12 28 0 22
-49 -8 -60 -18 -7 -25 -17 -25 -35 0 -15 4 -24 10 -20 5 3 10 -1 10 -9 0 -8
-5 -18 -10 -21 -16 -10 -11 -35 8 -36 11 0 7 -4 -10 -11 -27 -9 -39 -28 -18
-28 6 0 10 -4 10 -10 0 -5 -6 -10 -13 -10 -19 0 -41 -40 -28 -53 14 -14 14
-47 1 -47 -5 0 -10 -11 -10 -24 0 -14 -5 -28 -10 -31 -6 -3 -10 -20 -10 -36 0
-25 -6 -32 -31 -41 -20 -7 -28 -15 -25 -25 4 -10 -1 -13 -21 -11 -21 2 -28 -2
-34 -22 -4 -14 -7 -19 -8 -12 -2 19 -31 14 -31 -6 0 -10 -3 -22 -7 -26 -4 -4
-8 -15 -8 -24 0 -13 -9 -17 -34 -17 -19 0 -36 -6 -38 -13 -3 -8 1 -10 13 -5
12 4 15 2 12 -8 -3 -8 -11 -13 -18 -11 -7 1 -23 -9 -36 -23 -12 -14 -26 -25
-30 -25 -4 0 -22 -11 -40 -25 -18 -14 -39 -25 -48 -25 -8 0 -18 -5 -21 -10 -3
-6 -27 -19 -53 -30 -26 -12 -54 -25 -62 -30 -8 -5 -60 -32 -115 -60 -99 -50
-142 -74 -250 -137 -30 -18 -59 -33 -64 -33 -5 0 -41 -25 -80 -55 -89 -69
-120 -72 -139 -18 -8 21 -18 67 -22 102 -5 35 -14 68 -19 75 -12 15 -22 178
-22 365 -1 162 -3 181 -24 181 -28 0 -55 -84 -59 -181 -4 -92 -13 -123 -61
-210 -9 -16 -17 -71 -21 -145 -16 -301 -21 -341 -43 -354 -21 -10 -34 -9 -81
12 -22 9 -39 12 -45 6 -5 -5 -10 -53 -10 -106 -1 -111 -11 -134 -78 -172 -57
-33 -83 -66 -111 -144 -38 -109 -41 -142 -16 -205 11 -30 19 -60 16 -66 -2 -7
-30 -15 -61 -18 -30 -3 -70 -14 -87 -24 -28 -16 -96 -97 -97 -116 -2 -24 -145
-291 -172 -322 -9 -11 -34 -54 -55 -95 -21 -41 -46 -84 -55 -95 -10 -11 -39
-61 -64 -110 -25 -50 -62 -117 -81 -150 -20 -33 -63 -112 -96 -175 -34 -63
-67 -122 -75 -131 -21 -25 -36 -132 -28 -204 l7 -65 3054 0 3054 0 0 15440 0
15440 -11600 0 -11600 0 0 -15440z m8933 8363 c9 -3 17 -13 17 -23 0 -23 -58
-70 -77 -63 -18 7 -29 -27 -12 -37 7 -5 10 -12 6 -17 -5 -4 -12 -1 -17 7 -5 8
-12 11 -16 7 -4 -4 8 -20 27 -36 l34 -29 -24 -26 c-14 -14 -29 -26 -34 -26 -5
0 -15 -7 -22 -16 -14 -20 -63 -24 -88 -8 -10 7 -28 9 -39 6 -17 -4 -19 -2 -13
17 6 20 4 21 -22 15 -36 -9 -47 -19 -37 -36 27 -43 7 -82 -38 -73 -16 4 -28 3
-27 -2 1 -4 -1 -16 -6 -26 -12 -29 1 -31 55 -9 52 22 80 20 80 -3 0 -20 21
-30 31 -14 5 9 3 16 -9 21 -16 6 -16 7 0 7 9 1 30 15 48 32 31 32 53 34 118
14 17 -6 22 -3 22 9 0 9 6 25 13 36 10 17 9 22 -3 30 -19 12 -2 63 24 68 15 3
16 1 6 -18 -6 -12 -8 -25 -4 -28 4 -4 9 -1 11 6 3 6 11 12 19 12 8 0 15 8 16
18 1 9 2 24 4 32 1 8 2 19 3 24 1 4 12 1 25 -7 17 -12 26 -13 35 -4 7 7 11 7
11 1 0 -18 50 -36 65 -24 8 6 19 10 27 9 7 -1 21 1 30 5 10 5 27 1 42 -9 20
-14 29 -15 40 -6 17 14 56 -5 56 -27 0 -8 8 -10 24 -6 18 4 29 -2 50 -26 16
-19 32 -30 41 -26 11 4 14 -1 13 -19 -2 -16 -9 -25 -20 -25 -30 0 -28 -16 3
-27 24 -10 31 -9 36 3 3 8 10 14 15 14 6 0 17 8 24 18 12 15 15 15 24 2 10
-15 14 -8 11 21 -1 12 5 15 29 11 24 -3 30 -1 30 15 0 41 -43 66 -107 64 -14
0 -23 5 -23 14 0 8 4 15 9 15 25 0 111 -24 111 -32 0 -14 30 -9 36 7 9 23 23
18 30 -10 4 -15 13 -25 24 -25 11 0 24 -14 34 -40 11 -28 22 -40 36 -40 23 0
24 -4 10 -31 -6 -10 -20 -19 -32 -19 -18 0 -16 -4 13 -24 42 -31 86 -52 121
-60 15 -4 33 -16 39 -29 7 -12 18 -26 25 -30 8 -4 14 -17 14 -27 0 -11 6 -20
14 -20 8 0 22 -9 30 -21 8 -12 19 -18 24 -15 5 3 12 -4 15 -15 3 -12 10 -18
15 -15 6 3 22 2 36 -4 21 -8 28 -6 41 13 8 12 15 32 15 45 0 19 4 22 20 17 27
-9 44 3 30 20 -8 10 -8 19 2 34 12 19 36 26 80 23 27 -2 37 21 17 40 -16 15
-19 15 -37 -2 -17 -16 -21 -17 -26 -5 -3 8 0 17 5 21 6 3 9 15 6 25 -3 10 -1
22 4 25 5 3 9 23 9 45 0 40 13 52 24 23 4 -9 1 -23 -5 -31 -7 -7 -10 -14 -8
-16 39 -22 52 -27 61 -21 5 4 14 1 18 -7 5 -7 21 -14 37 -17 33 -4 37 -7 28
-22 -5 -8 -11 -8 -21 1 -21 17 -17 2 6 -21 23 -23 35 -26 24 -7 -5 9 -4 9 7
-1 7 -7 14 -23 14 -37 2 -30 32 -65 56 -65 10 0 21 -4 24 -10 3 -5 -1 -10 -11
-10 -13 0 -16 -7 -11 -35 4 -23 2 -35 -6 -35 -7 -1 -1 -7 12 -14 16 -9 20 -16
12 -20 -6 -4 -8 -12 -5 -18 4 -6 10 -6 17 1 7 7 14 7 24 -1 11 -9 10 -14 -4
-31 -17 -19 -17 -20 5 -34 12 -9 22 -22 22 -29 0 -8 9 -14 20 -14 19 0 24 -10
21 -37 -1 -8 9 -13 22 -13 14 0 27 -7 30 -15 8 -20 -11 -29 -29 -14 -13 10
-17 10 -25 -2 -14 -22 -4 -34 24 -31 14 1 28 -2 32 -7 3 -6 12 -8 19 -5 7 3
19 -2 26 -11 11 -13 10 -18 -8 -31 -32 -22 -28 -44 7 -44 20 0 30 6 34 20 6
23 37 27 37 5 0 -9 12 -21 27 -28 35 -16 73 -51 73 -68 0 -10 -3 -10 -12 -1
-18 18 -24 15 -26 -18 -2 -24 7 -39 43 -74 25 -24 45 -51 45 -60 0 -9 5 -16
10 -16 6 0 10 -5 10 -11 0 -7 -11 -9 -30 -5 -23 4 -30 2 -30 -10 0 -11 6 -13
19 -9 16 5 18 2 14 -15 -3 -11 -1 -20 4 -20 16 0 36 46 29 67 -7 21 21 40 62
41 21 1 23 -3 26 -50 2 -27 16 -34 23 -10 7 27 18 28 50 2 14 -11 34 -20 44
-20 22 0 24 -11 7 -28 -9 -9 -8 -12 5 -12 9 0 17 4 17 10 0 5 7 7 15 4 8 -4
26 1 40 10 23 15 25 15 25 -1 0 -14 2 -15 9 -5 5 9 17 11 35 6 29 -7 53 -39
36 -49 -15 -9 -1 -27 16 -21 8 3 17 -1 20 -9 3 -7 12 -11 20 -8 10 3 14 -2 14
-18 0 -13 4 -19 8 -14 12 18 62 17 62 -1 0 -13 3 -14 14 -5 24 20 30 -8 7 -33
-12 -12 -21 -27 -21 -33 0 -15 87 -25 130 -15 l35 8 -42 30 c-23 16 -42 35
-43 42 0 19 19 14 44 -10 37 -38 93 -78 99 -71 4 3 14 -8 24 -26 10 -17 21
-31 26 -31 11 0 8 25 -5 38 -9 9 -8 12 5 12 9 0 17 -6 17 -12 0 -7 7 -26 15
-41 8 -15 12 -34 8 -42 -7 -20 11 -19 31 1 18 18 20 30 6 39 -14 9 -12 25 3
25 18 0 21 -66 3 -73 -7 -3 -16 -14 -18 -25 -4 -15 -2 -19 9 -15 8 3 19 0 24
-8 7 -11 9 -11 9 4 0 11 8 17 25 17 18 0 25 -5 25 -20 0 -11 5 -19 11 -18 6 2
17 -13 23 -31 14 -39 32 -27 22 14 -6 22 -3 24 31 21 52 -3 86 -23 80 -47 -3
-11 5 -29 20 -45 27 -30 27 -32 -8 -36 -22 -3 -24 1 -26 41 -1 24 -4 45 -7 48
-10 10 -26 -9 -26 -31 0 -19 -7 -25 -35 -30 -19 -4 -35 -11 -35 -16 0 -6 4
-10 8 -10 5 0 14 -11 22 -24 10 -19 15 -22 25 -13 9 8 10 16 4 24 -6 7 -6 13
0 17 5 3 18 -5 29 -19 11 -14 29 -25 41 -25 12 0 24 -6 27 -14 3 -8 26 -17 52
-21 26 -4 50 -12 53 -17 4 -6 12 -7 18 -3 9 5 9 10 0 21 -19 23 17 18 38 -5
10 -11 34 -21 53 -23 25 -2 36 -8 38 -22 6 -28 28 -47 46 -40 23 9 19 26 -4
19 -14 -5 -20 -2 -20 9 0 9 2 16 4 16 2 0 11 3 20 6 10 4 21 -6 35 -33 19 -35
21 -36 27 -15 3 12 10 22 14 22 10 0 21 -45 15 -62 -6 -16 35 -44 44 -30 10
14 59 23 66 12 4 -6 2 -17 -4 -24 -6 -7 -8 -16 -4 -19 12 -13 36 -7 49 10 7
10 16 14 21 10 4 -5 0 -13 -9 -18 -10 -5 -14 -17 -11 -29 9 -35 36 -18 48 33
7 28 19 35 31 16 3 -6 15 -9 25 -6 15 4 20 -2 25 -29 6 -33 34 -49 34 -19 0 8
5 15 10 15 11 0 12 -15 4 -47 -10 -35 -28 -27 -53 22 -20 40 -51 61 -51 35 0
-5 4 -10 9 -10 5 0 14 -13 21 -29 6 -16 18 -32 26 -35 8 -3 14 -12 14 -21 0
-18 12 -19 28 -3 16 16 37 -4 28 -27 -6 -18 -45 -12 -58 9 -5 8 -11 7 -19 -1
-10 -10 -8 -17 11 -33 21 -18 56 -26 103 -22 9 1 17 -2 17 -7 0 -13 -37 -24
-50 -16 -5 3 -10 0 -10 -8 0 -8 -9 -17 -21 -20 -18 -5 -20 -2 -15 20 4 15 3
22 -3 19 -5 -4 -13 -2 -16 4 -4 6 -15 8 -25 5 -13 -4 -20 0 -25 14 -10 31 -36
15 -29 -18 9 -34 13 -38 24 -21 13 21 23 5 25 -38 1 -20 5 -45 9 -54 6 -13 4
-18 -8 -18 -9 0 -15 5 -13 12 1 7 -11 15 -28 18 -27 5 -30 9 -29 42 1 26 -4
38 -16 41 -15 4 -16 -2 -12 -47 2 -28 10 -55 16 -61 7 -5 11 -15 9 -22 -2 -6
1 -14 6 -18 6 -3 11 2 11 11 0 15 2 16 18 2 9 -9 24 -18 32 -21 12 -4 12 -6
-2 -6 -20 -1 -32 -17 -23 -31 8 -13 45 10 45 28 0 8 10 11 28 9 17 -3 26 -10
23 -18 -2 -8 -6 -22 -9 -33 -4 -16 -2 -17 16 -7 12 6 19 17 16 25 -3 8 3 20
14 27 10 8 22 24 26 37 10 29 40 25 44 -6 3 -16 10 -22 30 -22 25 0 25 -1 6
-15 -26 -19 -32 -19 -39 5 -8 27 -19 25 -33 -4 -9 -20 -8 -29 6 -46 15 -19 21
-20 47 -10 26 10 31 8 47 -12 23 -30 25 -56 3 -38 -12 10 -16 9 -22 -6 -4 -10
-2 -19 5 -22 21 -7 13 -22 -12 -22 -19 0 -25 -7 -31 -36 -7 -38 1 -57 14 -35
6 10 10 9 15 -4 4 -11 12 -15 22 -11 27 10 44 -12 33 -40 -5 -14 -6 -44 -3
-67 4 -23 3 -38 -2 -34 -4 4 -9 13 -10 20 -4 25 -23 65 -34 72 -7 4 -17 2 -23
-4 -16 -16 -37 6 -37 40 0 33 -10 37 -32 12 -8 -11 -13 -35 -12 -62 2 -31 -3
-49 -17 -64 -10 -12 -19 -24 -19 -28 0 -9 47 -5 57 4 10 11 53 8 53 -3 0 -5
13 -16 29 -24 27 -15 29 -14 35 7 l6 22 19 -23 c13 -15 21 -18 24 -10 3 8 9 3
14 -11 6 -16 12 -20 17 -13 5 9 12 9 26 0 14 -9 17 -19 13 -40 -4 -22 0 -34
16 -49 18 -17 20 -24 10 -35 -9 -11 -9 -18 -1 -26 12 -12 35 -1 27 13 -9 14 5
11 21 -5 9 -10 11 -17 3 -21 -6 -4 -7 -19 -4 -36 5 -24 3 -29 -12 -28 -10 0
-13 3 -6 5 16 7 5 34 -13 34 -8 0 -14 -7 -14 -15 0 -8 -4 -15 -10 -15 -5 0
-10 -6 -10 -13 0 -7 -9 -21 -21 -30 -11 -10 -18 -25 -15 -32 6 -17 1 -20 -41
-30 -26 -5 -33 -3 -33 9 0 8 10 16 22 18 12 2 23 9 26 16 3 9 -3 11 -22 6 -32
-8 -35 10 -5 27 17 9 23 8 30 -2 15 -25 19 -2 4 27 -8 16 -15 24 -15 18 0 -14
-40 -32 -63 -28 -10 1 -20 -3 -23 -11 -3 -7 -14 -11 -25 -8 -13 4 -19 0 -19
-11 0 -18 35 -22 46 -5 4 7 10 7 16 1 16 -16 0 -31 -28 -26 -20 4 -27 0 -31
-16 -3 -11 -9 -20 -14 -20 -5 0 -9 -10 -9 -21 0 -12 -8 -28 -17 -35 -17 -13
-17 -15 0 -25 25 -15 21 -29 -8 -29 -16 0 -25 -6 -25 -15 0 -8 -9 -15 -20 -15
-13 0 -18 -5 -14 -15 4 -8 2 -15 -4 -15 -6 0 -12 4 -14 10 -2 5 -25 12 -51 15
-36 4 -47 3 -42 -6 5 -7 1 -9 -12 -5 -13 4 -26 -1 -38 -14 -10 -11 -26 -20
-36 -20 -10 0 -22 -7 -27 -17 -7 -12 -17 -14 -41 -10 -28 6 -31 4 -31 -18 0
-20 -5 -24 -22 -22 -13 1 -26 7 -31 12 -10 13 -39 -25 -33 -42 3 -7 -1 -13 -9
-13 -7 0 -16 -9 -20 -19 -3 -11 -15 -19 -28 -19 -27 -1 -118 -12 -135 -18 -10
-3 -8 -10 5 -31 13 -19 14 -28 5 -31 -20 -6 -13 -25 7 -19 17 4 18 2 8 -14 -7
-11 -19 -17 -29 -14 -9 3 -19 1 -23 -5 -3 -5 -16 -10 -27 -10 -18 0 -20 -5
-15 -34 6 -37 -6 -56 -36 -56 -15 0 -18 5 -15 24 4 18 0 26 -15 30 -25 6 -37
0 -37 -19 0 -8 -20 -24 -45 -35 -33 -15 -45 -26 -45 -41 0 -17 3 -19 14 -10
22 18 36 -8 22 -42 -7 -15 -15 -24 -19 -21 -4 4 -9 -1 -13 -10 -3 -9 -12 -16
-19 -16 -7 0 -20 -11 -28 -24 -19 -28 -56 -41 -58 -20 -1 8 -3 19 -4 24 -1 6
-3 13 -4 16 0 4 -10 -5 -22 -20 -11 -14 -24 -24 -28 -21 -5 2 -17 -2 -27 -11
-18 -14 -18 -15 4 -9 19 5 22 2 22 -19 0 -26 -14 -35 -25 -16 -3 6 -13 10 -22
10 -11 0 -13 -4 -6 -12 16 -20 22 -68 9 -67 -37 4 -58 -2 -52 -16 4 -13 2 -13
-14 -5 -26 14 -33 13 -27 -4 9 -22 -5 -28 -19 -8 -7 9 -16 13 -21 9 -4 -5 0
-13 10 -18 13 -8 16 -17 11 -32 -6 -20 -6 -20 10 -4 10 9 26 17 37 17 23 0 26
-28 3 -37 -45 -17 -70 -68 -51 -100 6 -9 3 -11 -7 -7 -9 3 -16 10 -16 16 0 5
-4 6 -10 3 -6 -3 -8 -26 -4 -52 4 -38 3 -45 -10 -40 -11 5 -16 0 -16 -13 0
-10 -6 -23 -13 -27 -25 -16 -56 -65 -50 -80 3 -8 0 -19 -8 -24 -10 -6 -10 -9
-1 -9 19 0 14 -17 -7 -23 -26 -6 -34 3 -18 21 10 13 9 14 -10 8 -12 -4 -24 -2
-27 3 -10 16 -38 0 -31 -17 3 -8 0 -21 -6 -28 -9 -11 -7 -14 9 -14 30 0 36
-17 11 -30 -18 -10 -21 -18 -16 -56 5 -50 -2 -59 -50 -59 -29 0 -31 2 -26 28
4 21 2 27 -11 27 -13 0 -15 -4 -7 -17 5 -10 5 -26 0 -41 -6 -15 -6 -29 0 -36
5 -6 11 -29 13 -51 2 -28 8 -41 20 -43 15 -3 17 2 12 27 -4 20 -2 31 5 31 6 0
11 -18 11 -44 0 -25 5 -48 10 -51 6 -4 10 9 10 32 1 33 2 35 12 19 11 -19 11
-19 26 0 13 18 14 17 9 -9 -2 -15 0 -30 4 -33 14 -8 10 -24 -6 -24 -9 0 -12
-6 -9 -15 4 -11 -1 -15 -17 -17 -34 -2 -42 -1 -61 7 -14 5 -18 2 -18 -14 0
-12 6 -21 15 -21 9 0 12 -6 8 -17 -5 -12 -2 -15 8 -11 18 7 55 -27 40 -37 -6
-3 -9 -11 -6 -16 3 -5 -1 -6 -9 -3 -9 3 -13 10 -10 15 9 15 -26 23 -39 9 -9
-9 -8 -14 4 -22 13 -9 14 -16 5 -34 -6 -13 -19 -24 -28 -24 -20 0 -23 -11 -8
-26 5 -5 10 -24 12 -42 1 -18 8 -32 15 -32 7 0 13 -4 13 -10 0 -5 -6 -10 -14
-10 -19 0 -29 -17 -22 -37 5 -12 9 -13 20 -4 10 9 16 9 21 1 4 -6 4 -14 1 -17
-3 -4 1 -14 9 -23 13 -14 11 -19 -16 -48 -17 -18 -28 -36 -25 -39 4 -4 12 -1
18 5 21 21 25 13 18 -35 -5 -30 -4 -50 2 -54 16 -10 -2 -31 -19 -25 -11 4 -13
2 -9 -9 9 -25 -5 -75 -21 -75 -12 0 -13 -3 -4 -14 8 -10 8 -20 -4 -42 -20 -39
-19 -54 5 -54 11 0 20 -4 20 -10 0 -5 -9 -10 -20 -10 -11 0 -20 -4 -20 -10 0
-5 5 -10 10 -10 6 0 10 -9 10 -20 0 -23 -19 -26 -39 -7 -11 10 -11 8 -2 -8 20
-37 50 -67 61 -60 5 3 10 1 10 -4 0 -6 7 -11 16 -11 12 0 15 -5 9 -22 -4 -13
-9 -38 -12 -55 -3 -19 -11 -33 -19 -33 -17 0 -17 -5 -3 -31 6 -11 17 -18 24
-15 9 3 20 -7 29 -25 13 -27 13 -30 -5 -40 -11 -5 -25 -7 -31 -3 -8 5 -9 2 -5
-10 4 -10 7 -22 7 -27 0 -5 6 -9 14 -9 23 0 28 -17 10 -34 -18 -18 -9 -40 13
-32 9 4 11 2 6 -7 -4 -6 -8 -16 -8 -22 -1 -5 -7 -9 -14 -7 -9 2 -11 -9 -6 -43
5 -30 4 -45 -4 -45 -6 0 -11 -6 -11 -14 0 -8 -10 -14 -22 -14 -77 -2 -76 -2
-71 -43 4 -25 2 -39 -6 -39 -6 0 -11 -5 -11 -11 0 -6 12 -10 28 -9 53 4 59 1
37 -18 -22 -18 -23 -23 -29 -110 -2 -29 -6 -56 -10 -59 -11 -11 -7 -23 8 -23
8 0 16 -7 19 -15 8 -19 -15 -63 -29 -58 -7 2 -12 -12 -12 -37 -1 -35 2 -41 16
-35 20 8 20 8 50 6 14 -1 22 -6 19 -13 -2 -7 -15 -12 -29 -10 -28 3 -44 -11
-33 -28 5 -8 11 -7 21 1 8 6 17 9 21 5 4 -3 -2 -13 -13 -20 -26 -19 -14 -28
17 -12 13 7 30 11 37 8 14 -4 16 -42 2 -42 -5 0 -10 -5 -10 -10 0 -6 6 -10 13
-9 29 4 37 -3 37 -31 0 -20 5 -30 15 -30 8 0 15 -2 15 -4 0 -2 3 -11 6 -19 4
-11 -1 -13 -20 -10 -25 5 -26 3 -27 -38 0 -24 -3 -37 -6 -29 -3 8 -12 20 -19
26 -11 8 -12 18 -5 36 13 34 -3 58 -39 58 -31 0 -39 -13 -18 -26 6 -4 14 -2
16 4 2 7 8 12 14 12 7 0 7 -4 1 -12 -6 -7 -13 -23 -16 -36 -4 -18 0 -25 19
-32 29 -11 31 -26 4 -40 -11 -6 -20 -20 -20 -30 0 -11 -4 -20 -10 -20 -5 0
-10 6 -10 14 0 7 -6 19 -14 25 -8 7 -18 26 -21 42 -4 16 -10 29 -15 29 -12 0
-20 -43 -10 -55 6 -7 7 -15 3 -19 -4 -4 -1 -12 7 -17 12 -8 10 -9 -7 -4 -16 4
-25 0 -32 -14 -16 -28 -14 -33 10 -26 15 5 19 4 15 -4 -4 -6 -1 -20 7 -31 l14
-21 6 22 c3 11 10 18 16 15 18 -12 -9 -57 -31 -50 -24 7 -23 -1 4 -26 18 -16
19 -20 5 -20 -11 0 -14 -5 -11 -15 4 -10 13 -13 24 -10 24 8 35 -24 14 -39
-14 -11 -14 -13 -1 -25 11 -8 17 -9 22 -1 3 6 11 8 16 4 6 -4 6 -11 -2 -20 -9
-11 -8 -14 4 -14 9 0 19 5 22 10 12 19 30 10 30 -16 0 -25 -2 -26 -47 -21 -38
3 -48 1 -48 -11 0 -9 -7 -13 -20 -9 -13 3 -20 0 -20 -9 0 -8 4 -14 10 -14 5 0
7 -7 3 -16 -5 -14 -3 -14 16 -3 11 8 21 20 21 27 0 8 6 12 13 9 6 -2 11 -12
10 -23 -2 -22 36 -57 54 -50 16 7 18 -36 3 -65 -9 -15 -6 -24 14 -44 27 -27
26 -31 -4 -15 -13 7 -21 6 -30 -5 -15 -17 -5 -35 19 -35 32 0 44 -25 21 -45
-18 -16 -25 -14 -21 8 0 4 -3 7 -9 7 -5 0 -10 -2 -10 -4 0 -2 -3 -11 -6 -19
-4 -10 4 -16 25 -19 17 -3 31 0 31 6 0 5 6 1 14 -10 13 -17 13 -22 0 -42 -14
-22 -14 -24 5 -29 38 -10 12 -28 -34 -25 -26 2 -45 0 -45 -6 0 -6 8 -8 18 -6
9 2 23 0 30 -5 12 -7 12 -12 1 -30 -8 -11 -22 -21 -31 -21 -10 0 -18 -7 -18
-15 0 -8 -7 -15 -15 -15 -9 0 -15 -9 -15 -22 -1 -29 -42 -81 -61 -77 -20 4
-59 -11 -59 -22 0 -5 5 -9 10 -9 6 0 10 -4 10 -8 0 -4 -9 -8 -20 -8 -13 0 -20
7 -20 21 0 17 -2 16 -15 -8 -8 -15 -11 -35 -8 -43 5 -14 3 -15 -15 -5 -19 10
-22 9 -22 -7 0 -10 4 -22 10 -28 6 -6 6 -15 0 -24 -8 -12 -10 -11 -10 5 0 22
-35 49 -50 40 -15 -9 -12 -35 3 -29 7 2 20 -8 29 -23 15 -26 14 -30 -3 -63
-11 -19 -19 -29 -19 -22 0 6 -7 12 -15 12 -19 0 -19 -7 0 -27 19 -18 14 -39
-7 -35 -9 1 -21 -4 -27 -12 -7 -8 -20 -12 -29 -9 -15 6 -15 5 -3 -10 7 -9 10
-17 6 -17 -4 0 -2 -6 4 -14 9 -10 7 -17 -6 -27 -13 -11 -17 -11 -20 -1 -3 6
-11 12 -19 12 -8 0 -11 -6 -8 -15 4 -8 2 -15 -2 -16 -46 -2 -101 -13 -111 -21
-9 -7 -13 -7 -13 1 0 7 -8 10 -19 6 -10 -3 -47 -5 -82 -4 -122 2 -194 -2 -204
-12 -16 -16 -27 -10 -20 11 6 19 4 20 -22 14 -15 -4 -34 -13 -41 -21 -18 -18
-32 -16 -32 3 0 9 9 18 20 21 16 4 19 11 14 27 -9 28 -7 27 -42 20 -25 -5 -32
-12 -32 -29 0 -13 -8 -26 -17 -30 -15 -5 -16 -4 -5 6 17 18 15 49 -3 49 -8 0
-15 5 -15 10 0 6 -7 10 -15 10 -8 0 -15 7 -15 15 0 8 -9 15 -19 15 -11 0 -26
3 -34 6 -10 3 -18 -2 -22 -16 -10 -30 7 -45 32 -29 23 14 57 5 50 -14 -2 -7
-16 -11 -31 -9 -32 4 -91 -21 -100 -43 -3 -8 -14 -15 -24 -15 -29 0 -33 -11
-12 -37 16 -20 17 -28 7 -44 -16 -25 -23 -24 -52 7 -28 30 -33 49 -10 40 9 -3
15 0 15 10 0 21 -22 27 -53 15 -32 -12 -34 -29 -8 -62 29 -38 33 -80 8 -101
-23 -21 -18 -23 18 -6 14 6 28 22 31 35 4 14 14 23 26 23 11 0 32 8 46 18 31
21 53 23 59 5 3 -7 -7 -17 -22 -23 -15 -6 -29 -19 -32 -30 -3 -11 -12 -20 -21
-20 -12 0 -13 -3 -5 -11 6 -6 9 -17 7 -24 -3 -6 3 -18 12 -26 14 -11 18 -12
22 -1 3 10 8 7 19 -8 8 -11 22 -19 30 -18 9 2 17 -5 19 -16 3 -22 24 -37 38
-29 5 4 7 -1 3 -10 -3 -10 -3 -17 1 -17 12 0 30 -70 19 -77 -5 -3 -12 -1 -16
5 -4 6 -14 4 -27 -7 -20 -16 -20 -18 -5 -37 9 -11 24 -23 34 -27 10 -4 15 -12
12 -17 -4 -6 -1 -18 6 -26 10 -13 10 -17 -2 -24 -11 -7 -11 -12 -1 -22 19 -19
15 -68 -5 -68 -17 -1 -17 -2 0 -15 14 -10 17 -21 13 -43 -8 -35 19 -67 35 -41
6 10 9 7 9 -14 0 -16 7 -35 16 -44 13 -13 19 -14 40 -3 22 12 26 11 47 -14 13
-14 26 -24 30 -20 3 3 -1 13 -9 21 -17 18 -10 33 16 33 36 0 50 -12 50 -41 0
-32 11 -37 30 -14 9 11 17 12 30 5 25 -14 33 -12 27 4 -3 8 5 18 19 25 19 9
24 8 24 -4 0 -9 10 -15 26 -15 23 0 26 3 22 29 -4 25 0 30 31 41 26 9 36 10
39 1 4 -11 32 -16 32 -5 0 12 -31 35 -40 29 -5 -3 -15 6 -20 20 -11 30 -13 51
-3 42 3 -4 13 -1 21 5 12 10 19 7 38 -17 21 -26 29 -27 25 -2 0 4 4 7 10 7 7
0 9 11 6 27 -7 36 8 63 34 63 19 0 19 -1 5 -16 -20 -20 -20 -34 -1 -34 8 0 16
-9 17 -20 0 -11 1 -26 2 -32 1 -7 9 -16 19 -20 9 -4 17 -17 17 -30 0 -17 3
-19 12 -10 20 20 27 14 25 -20 -1 -18 -11 -41 -22 -50 -16 -15 -18 -19 -6 -27
8 -5 11 -16 8 -25 -3 -8 0 -22 8 -30 21 -20 19 -24 -8 -19 -14 3 -29 -2 -36
-11 -11 -13 -11 -16 2 -16 8 0 17 -7 21 -15 3 -9 0 -15 -9 -15 -8 0 -15 -6
-15 -13 0 -9 -11 -12 -32 -10 -18 2 -27 0 -20 -3 20 -9 14 -23 -8 -17 -11 3
-20 0 -20 -6 0 -6 -7 -11 -15 -11 -8 0 -23 -9 -32 -20 -10 -11 -27 -20 -38
-20 -13 0 -25 -11 -33 -29 -10 -22 -17 -27 -37 -24 -20 4 -23 2 -18 -18 4 -15
3 -20 -5 -15 -7 4 -12 3 -12 -2 0 -6 -10 -8 -22 -4 -17 4 -20 2 -15 -11 7 -18
-11 -35 -22 -21 -7 11 -37 12 -47 1 -11 -11 -64 -9 -64 3 0 5 -7 7 -15 4 -8
-4 -25 0 -38 8 -12 8 -34 18 -49 22 -32 7 -37 23 -10 28 9 3 -3 5 -27 6 -24 0
-48 6 -52 13 -5 9 -11 10 -21 2 -17 -14 -78 -4 -85 13 -3 9 -20 14 -44 14 -21
0 -39 5 -39 10 0 6 -9 10 -20 10 -11 0 -20 -5 -20 -11 0 -13 -60 -2 -75 13 -7
7 1 8 23 3 22 -4 32 -3 32 5 0 7 -6 10 -14 7 -7 -3 -23 1 -34 9 -22 15 -50 9
-68 -15 -10 -12 -17 -13 -36 -4 -15 7 -30 8 -39 2 -8 -5 -30 -9 -49 -9 -19 0
-41 -4 -49 -9 -9 -6 -21 -5 -33 2 -14 9 -21 9 -26 1 -4 -7 -41 -11 -99 -10
-51 1 -93 -2 -93 -7 0 -4 -12 -7 -27 -7 -16 0 -57 -1 -93 -3 -63 -3 -114 7
-141 29 -8 6 -27 14 -44 18 -16 3 -41 9 -55 13 -14 4 -50 6 -80 6 -46 -1 -52
1 -36 12 13 10 14 15 5 21 -7 4 -15 2 -17 -4 -2 -7 -11 -12 -21 -12 -9 0 -22
-5 -29 -12 -9 -9 -12 -9 -12 0 0 18 -18 14 -42 -10 -14 -14 -23 -18 -26 -10
-5 17 -42 15 -48 -3 -4 -8 -13 -15 -21 -15 -8 0 -11 5 -8 10 12 20 -12 9 -35
-15 -13 -14 -34 -25 -48 -25 -23 0 -61 -34 -62 -56 0 -6 -13 -14 -30 -17 -20
-5 -30 -12 -30 -25 0 -37 -54 -59 -66 -27 -8 20 -24 9 -24 -16 0 -10 7 -19 15
-19 8 0 15 -7 15 -15 0 -8 5 -15 10 -15 6 0 14 -10 19 -23 5 -12 18 -23 29
-24 31 -2 72 -32 65 -49 -9 -25 17 -15 29 11 6 14 15 25 20 25 4 0 8 8 8 18 0
24 26 59 36 49 5 -4 2 -12 -6 -17 -8 -5 -12 -12 -8 -15 9 -9 159 56 152 66 -3
5 0 9 5 9 6 0 11 -5 11 -12 0 -9 3 -9 12 0 7 7 18 12 25 12 6 0 23 11 37 25
14 14 31 22 39 19 9 -3 16 3 20 15 3 14 11 19 20 15 8 -3 18 -1 22 5 4 8 11 6
22 -4 8 -9 24 -13 34 -10 10 3 28 8 40 11 15 4 22 0 26 -17 6 -20 7 -21 19 -5
10 15 15 15 33 4 12 -7 21 -16 21 -19 0 -4 9 -5 20 -2 31 8 70 -5 70 -24 0
-15 1 -15 13 1 11 15 17 17 35 7 13 -7 27 -9 32 -6 5 3 11 1 14 -4 3 -4 24
-11 47 -15 33 -5 44 -3 54 11 11 14 25 17 71 16 32 -2 61 -8 65 -14 4 -6 12
-8 19 -4 7 4 16 2 20 -6 7 -10 11 -10 25 1 14 12 18 12 25 -1 7 -11 12 -11 22
-1 16 16 43 15 57 -2 19 -22 80 -30 100 -12 24 22 111 3 111 -25 0 -22 3 -22
47 -10 24 7 35 6 44 -5 6 -8 19 -14 28 -14 22 0 71 -23 71 -33 0 -5 13 1 28
12 27 19 29 19 43 3 8 -9 14 -24 14 -32 0 -8 8 -15 17 -15 9 0 20 -4 24 -7 10
-10 -57 -68 -78 -68 -11 0 -15 -5 -12 -14 3 -8 11 -13 17 -10 7 2 18 0 26 -5
12 -8 12 -12 -3 -26 -18 -18 -18 -48 -1 -49 6 -1 11 11 13 27 4 37 22 35 22
-3 0 -29 24 -44 32 -20 4 14 58 -11 58 -26 0 -7 11 -11 25 -10 26 1 36 16 10
16 -20 0 -19 29 1 37 15 6 94 -26 94 -39 0 -4 -4 -10 -10 -13 -5 -3 -10 -13
-10 -21 0 -11 5 -10 22 6 12 11 29 18 37 15 8 -3 17 -2 20 3 3 5 23 7 44 4 32
-4 38 -8 34 -23 -3 -11 -1 -19 4 -19 5 0 9 -11 9 -25 0 -14 5 -25 11 -25 6 0
9 6 6 13 -6 17 1 28 34 49 31 20 47 12 69 -34 9 -18 22 -32 28 -30 7 1 12 -5
12 -13 0 -17 25 -20 35 -5 9 14 35 -14 35 -37 0 -14 -2 -15 -9 -4 -11 17 -23
-1 -15 -23 4 -11 1 -16 -10 -16 -9 0 -16 5 -16 11 0 7 -11 8 -30 4 -19 -4 -36
-2 -45 5 -8 7 -15 10 -15 7 0 -9 47 -54 67 -66 16 -9 16 -10 1 -11 -9 0 -18
-6 -21 -12 -5 -14 -46 29 -47 48 0 7 -9 14 -20 17 -14 4 -20 0 -20 -12 0 -10
-8 -26 -19 -35 -18 -16 -18 -16 -13 11 5 25 4 27 -12 14 -9 -7 -15 -20 -14
-29 2 -8 -3 -17 -9 -19 -16 -6 -17 11 -3 38 6 10 8 19 5 19 -10 0 -35 -28 -35
-38 0 -13 -62 -24 -84 -16 -9 3 -23 1 -31 -6 -19 -16 -105 6 -105 26 0 8 -15
23 -32 34 -35 21 -78 27 -78 10 0 -5 4 -10 9 -10 5 0 11 -7 14 -14 4 -10 1
-13 -7 -10 -8 3 -17 1 -21 -5 -12 -20 -26 -12 -15 9 9 16 8 20 -5 20 -8 0 -15
5 -15 10 0 6 -7 10 -15 10 -8 0 -15 -4 -15 -10 0 -5 -13 -10 -30 -10 -22 0
-28 -4 -24 -15 4 -10 0 -15 -11 -15 -9 0 -19 9 -22 20 -3 11 -9 20 -14 20 -16
0 -10 -42 8 -55 10 -8 12 -14 5 -19 -6 -3 -17 1 -25 9 -9 8 -20 15 -26 15 -6
0 -11 9 -11 21 0 24 -18 21 -34 -5 -9 -13 -6 -21 14 -37 24 -20 24 -20 3 -14
-33 9 -30 0 15 -50 16 -18 15 -22 -8 -28 -11 -3 -20 -13 -20 -22 0 -12 6 -16
19 -12 29 7 48 -8 32 -27 -14 -17 -7 -34 21 -54 10 -7 18 -22 18 -33 0 -22 15
-26 23 -5 3 8 -3 26 -14 39 -20 27 -25 42 -10 32 5 -3 13 0 16 6 4 6 -2 13
-14 16 -25 6 -28 23 -5 23 22 0 64 -46 53 -57 -5 -5 -5 -20 -1 -34 6 -22 10
-25 30 -18 12 5 22 15 22 24 0 8 7 15 15 15 10 0 15 -10 15 -29 0 -43 9 -60
41 -77 25 -12 29 -12 29 0 0 7 7 17 16 20 21 8 33 -2 16 -13 -7 -4 -10 -15 -6
-24 4 -11 0 -19 -10 -23 -10 -4 -14 -13 -11 -24 4 -13 -2 -19 -26 -24 -18 -3
-38 -1 -45 4 -8 8 -14 8 -19 0 -4 -6 -13 -9 -21 -6 -10 4 -14 0 -12 -11 2 -11
-5 -16 -22 -17 -24 -1 -86 -46 -64 -46 6 0 15 5 22 12 9 9 15 8 27 -8 14 -18
15 -18 29 -1 12 15 18 16 35 7 15 -7 21 -7 21 0 0 8 6 8 20 0 16 -9 20 -8 21
7 0 14 2 13 9 -4 12 -29 34 -31 25 -3 -9 28 9 25 25 -5 11 -21 11 -27 -3 -43
-10 -10 -14 -22 -10 -25 12 -13 23 -7 23 13 0 14 7 20 21 20 18 0 20 -4 14
-31 l-7 -32 25 19 c20 15 23 23 15 38 -9 16 -8 18 8 11 11 -4 33 -11 49 -15
22 -6 25 -8 9 -9 -12 -1 -25 -8 -28 -17 -3 -8 -10 -13 -15 -10 -5 3 -7 -3 -4
-14 8 -30 36 -24 70 15 29 33 53 45 53 28 0 -5 14 -17 30 -28 36 -24 36 -28 9
-54 -12 -11 -18 -24 -14 -30 4 -8 10 -7 20 1 48 47 58 51 70 34 15 -20 29 -21
21 -1 -3 8 -1 15 5 15 6 0 6 7 -1 19 -20 38 -12 52 15 25 14 -14 25 -30 25
-36 0 -6 9 -8 21 -5 12 3 18 3 15 0 -3 -4 1 -17 9 -30 12 -17 12 -23 3 -23 -7
0 -19 -9 -26 -20 -10 -17 -10 -20 5 -21 14 0 13 -2 -4 -9 -13 -5 -23 -14 -23
-20 0 -15 33 -12 56 5 10 8 33 14 49 14 l30 0 -27 -17 c-16 -9 -28 -20 -28
-24 0 -5 -12 -8 -26 -8 -32 0 -28 -22 6 -30 20 -5 21 -7 6 -19 -17 -15 -23
-46 -6 -36 15 9 40 -14 40 -36 0 -11 7 -19 16 -19 11 0 13 6 9 19 -5 18 -1 20
35 18 l40 -1 -32 -16 c-39 -18 -48 -52 -22 -81 9 -10 12 -19 6 -19 -6 0 -15 8
-21 17 -5 10 -13 14 -17 10 -5 -4 -2 -17 5 -29 14 -23 2 -43 -27 -43 -9 0 -17
-7 -17 -15 0 -11 9 -14 32 -12 17 2 35 -2 39 -9 5 -9 2 -10 -9 -6 -9 3 -19 2
-22 -3 -4 -6 -1 -10 4 -10 6 0 11 -7 11 -15 0 -8 -5 -15 -10 -15 -6 0 -13 7
-16 15 -4 8 -10 15 -14 15 -14 0 -20 -44 -8 -58 9 -10 9 -15 -1 -22 -8 -4 -11
-16 -7 -28 5 -14 0 -28 -14 -42 -26 -26 -12 -53 15 -30 14 12 18 11 26 -1 8
-11 14 -9 33 13 27 30 46 22 38 -17 -3 -21 -7 -23 -23 -14 -24 13 -26 -8 -2
-26 19 -14 9 -37 -12 -29 -17 7 -75 -26 -75 -42 0 -7 8 -10 20 -7 11 3 20 0
20 -6 0 -6 -4 -11 -10 -11 -5 0 -10 -9 -10 -20 0 -15 -7 -20 -25 -20 -18 0
-23 -4 -18 -16 4 -12 0 -14 -20 -9 -21 6 -26 3 -29 -17 -2 -15 -11 -24 -24
-26 -12 -2 -24 -11 -27 -21 -2 -11 -18 -21 -36 -24 -19 -4 -30 -11 -26 -17 4
-6 11 -8 16 -5 11 7 53 -4 45 -12 -3 -4 2 -12 12 -19 16 -13 16 -13 0 -14 -11
0 -15 -5 -12 -15 4 -8 1 -21 -5 -28 -8 -10 -6 -19 5 -35 14 -20 14 -22 -5 -22
-12 0 -21 6 -21 13 0 8 -23 13 -78 14 -62 1 -73 -1 -54 -9 26 -13 25 -27 -4
-42 -10 -6 -21 -12 -23 -13 -2 -2 2 -9 9 -18 10 -12 10 -15 -4 -15 -9 0 -16 5
-16 10 0 6 -7 10 -15 10 -8 0 -15 -7 -15 -15 0 -8 -7 -15 -15 -15 -9 0 -15 -9
-15 -21 0 -14 -5 -19 -15 -16 -8 4 -17 2 -20 -3 -13 -22 -34 -8 -41 25 -7 37
-34 49 -34 15 0 -11 7 -20 15 -20 8 0 15 -7 15 -15 0 -8 -7 -15 -15 -15 -9 0
-14 -8 -12 -22 1 -18 -3 -23 -21 -23 -13 0 -29 -8 -36 -17 -13 -18 -55 -26
-73 -15 -12 8 -73 -29 -73 -44 0 -12 -55 -17 -62 -6 -14 21 -29 -15 -23 -51 7
-41 -2 -72 -21 -72 -16 0 -19 17 -3 22 12 4 1 38 -12 38 -5 0 -9 -10 -9 -22 0
-21 0 -21 -19 -2 -16 16 -17 21 -5 30 8 6 14 17 14 23 0 19 -31 9 -44 -14 -19
-33 -34 -45 -55 -45 -15 0 -21 7 -22 23 0 12 -3 16 -6 10 -7 -19 -83 -16 -105
4 -17 15 -19 15 -32 -2 -12 -16 -16 -17 -44 -4 -37 16 -42 39 -10 39 20 0 21
1 6 16 -12 12 -20 14 -36 5 -25 -13 -72 -14 -72 -2 0 5 5 22 10 37 8 21 8 31
-3 42 -13 12 -18 12 -38 -1 -33 -21 -127 -47 -144 -40 -8 3 -15 0 -15 -6 0 -6
-21 10 -46 35 -25 26 -55 48 -67 50 -12 1 -29 5 -38 9 -11 4 -18 0 -21 -13 -6
-20 -53 -28 -64 -11 -3 5 -13 9 -23 9 -25 0 -43 21 -30 36 7 9 5 16 -11 24
-11 6 -18 16 -14 22 4 6 -1 8 -15 3 -12 -4 -29 0 -41 8 -20 14 -20 14 4 31 14
9 32 16 40 16 23 0 26 27 5 46 -18 16 -20 16 -38 -5 -11 -13 -25 -20 -30 -16
-6 3 -11 1 -11 -5 0 -7 -6 -8 -18 -1 -13 7 -22 7 -29 0 -6 -6 -14 -5 -23 6 -7
8 -19 15 -26 15 -8 0 -16 16 -20 39 -6 38 -7 39 -58 45 -28 4 -56 10 -62 14
-14 10 -15 53 -2 69 8 10 8 20 0 38 -11 24 -42 35 -42 15 0 -17 -41 -11 -67
10 -14 11 -32 20 -39 20 -8 0 -14 8 -14 19 0 18 -30 52 -30 35 -1 -16 -29 41
-30 59 0 10 -8 20 -17 24 -35 12 -93 65 -93 83 0 11 -7 23 -15 28 -9 4 -18 21
-21 38 -3 16 -11 34 -19 40 -8 6 -15 15 -15 19 0 14 -78 80 -107 91 -15 5 -28
17 -28 26 0 9 -4 20 -7 24 -4 4 0 13 9 19 15 11 14 14 -7 25 -19 10 -24 10
-32 -4 -15 -27 -27 -18 -39 30 -11 43 -48 94 -69 94 -9 0 -15 -23 -11 -44 1
-5 -1 -26 -4 -47 l-6 -37 -52 0 c-29 0 -58 5 -65 10 -15 13 -6 48 17 65 22 16
2 35 -39 37 -18 1 -38 9 -45 19 -17 24 -30 21 -43 -8 -13 -28 -69 -38 -58 -10
3 9 0 15 -10 15 -11 0 -15 -6 -11 -20 3 -12 -1 -24 -11 -30 -10 -5 -14 -10
-10 -10 4 0 3 -11 -2 -25 -8 -21 -4 -30 27 -62 19 -21 47 -53 60 -70 21 -27
32 -33 62 -33 20 0 45 7 55 15 11 8 33 15 49 15 25 0 27 -3 22 -22 -19 -60 9
-81 103 -79 59 2 67 -11 22 -34 -25 -13 -29 -19 -20 -35 11 -21 65 -41 118
-44 29 -1 37 -5 43 -27 9 -37 0 -79 -20 -86 -20 -8 -51 -34 -51 -44 0 -4 10
-9 22 -11 13 -2 24 -11 26 -23 6 -28 21 -45 43 -45 13 0 16 -5 12 -16 -3 -8
-12 -13 -20 -10 -7 3 -23 -5 -35 -19 -16 -19 -27 -23 -47 -18 -34 8 -101 50
-101 63 0 6 -7 10 -15 10 -30 0 -64 23 -81 56 -12 22 -37 44 -68 60 -71 37
-183 141 -197 181 -8 25 -22 39 -55 54 -24 12 -44 25 -44 29 0 5 -9 12 -20 15
-13 4 -20 15 -20 33 0 14 -10 36 -21 48 l-21 23 22 31 c29 40 15 52 -51 44
-42 -6 -48 -4 -67 21 -23 29 -28 65 -12 81 5 5 7 19 4 32 -5 17 -14 22 -41 22
-40 0 -88 43 -106 95 -6 17 -17 35 -25 41 -8 6 -16 24 -18 40 -17 165 -25 197
-56 226 -16 15 -27 32 -23 37 3 6 -12 20 -34 33 -32 18 -49 40 -81 103 -73
141 -86 162 -134 218 -25 30 -46 61 -46 70 0 24 -11 47 -23 47 -17 0 -87 72
-87 90 0 8 -10 31 -22 50 -11 19 -26 55 -33 80 -9 36 -19 49 -49 66 -21 12
-48 39 -60 60 -12 22 -39 61 -59 87 -20 27 -37 58 -37 70 0 37 -28 104 -55
133 -17 19 -25 38 -25 64 0 26 -9 48 -30 75 -24 30 -30 47 -30 86 0 41 -5 55
-34 86 -28 32 -32 44 -28 76 2 20 -1 51 -8 68 -9 21 -10 33 -3 37 13 9 34 82
27 94 -3 5 -17 2 -30 -6 -13 -9 -28 -16 -34 -16 -17 0 -11 46 9 64 10 9 21 29
24 44 2 15 8 35 12 44 5 13 1 20 -18 27 -42 16 -66 49 -58 78 7 27 10 29 74
57 62 26 60 67 -3 80 -27 5 -30 9 -24 32 5 20 0 32 -24 57 -31 34 -50 77 -33
77 5 0 21 4 35 10 25 9 25 10 9 42 -10 20 -17 58 -17 98 -1 67 4 76 65 140 9
9 19 34 22 55 3 20 14 46 23 56 10 11 15 21 12 24 -9 10 -37 -7 -43 -25 -7
-23 -65 -33 -65 -11 0 19 -19 78 -39 118 -13 27 -13 38 -3 66 13 36 5 78 -17
92 -6 3 -11 16 -11 28 0 26 46 127 57 127 5 0 14 14 20 31 11 27 9 35 -9 59
-22 31 -22 36 19 127 7 18 13 52 12 76 -2 24 5 57 14 76 l16 33 -24 -6 c-21
-5 -27 -1 -40 31 -10 22 -15 65 -15 112 0 42 1 87 1 101 0 41 -7 70 -19 82
-17 17 -15 48 3 68 14 16 13 20 -11 49 -25 30 -26 34 -15 74 15 51 16 87 13
376 -1 18 5 43 13 55 10 16 12 39 6 91 -9 81 -8 101 7 173 9 38 9 59 1 74 -6
11 -8 27 -4 36 6 16 19 227 17 282 -1 14 -4 42 -8 63 -4 25 -2 48 6 62 10 19
10 34 1 71 -11 45 -11 48 15 75 26 27 26 29 16 91 -13 73 -8 238 7 266 7 13 7
31 1 53 -16 55 -12 132 9 175 19 39 19 41 1 94 -20 57 -25 102 -13 113 9 10
15 51 16 124 1 34 5 65 10 69 10 11 9 64 -2 64 -6 0 -7 10 -4 23 3 12 6 45 8
72 2 28 6 68 9 90 3 22 7 82 8 133 1 50 5 92 9 92 12 0 31 57 27 81 -2 18 2
24 17 25 44 2 47 4 40 22 -4 9 -11 41 -15 71 -9 49 -7 55 13 72 14 12 17 18 8
19 -8 0 -11 7 -8 20 3 11 1 23 -4 26 -18 11 -10 44 11 44 14 0 20 7 20 23 0
46 14 68 55 92 34 21 42 31 43 56 0 18 -5 32 -14 36 -9 3 -14 20 -14 45 0 46
15 78 35 78 10 0 15 11 15 35 0 23 4 34 13 32 13 -2 13 0 4 51 -6 29 -4 32 19
32 20 0 24 3 17 13 -5 6 -10 27 -11 45 -2 27 2 35 18 39 17 5 19 11 14 38 -5
28 -2 36 21 51 14 11 36 27 48 36 l22 17 -25 9 c-18 7 -31 5 -48 -6 -21 -14
-23 -14 -29 6 -3 12 -14 24 -24 27 -34 11 -20 25 23 23 32 -2 43 1 46 13 4 23
-24 49 -53 49 -18 0 -23 4 -19 15 4 8 11 15 18 15 6 0 17 9 24 20 7 11 21 20
31 20 26 0 34 15 26 47 -5 20 -11 24 -31 20 -31 -6 -42 15 -23 41 13 15 12 16
-3 4 -9 -8 -26 -11 -37 -7 -18 5 -20 12 -15 53 7 58 23 92 47 101 15 6 20 19
22 57 2 42 -2 53 -26 75 -20 19 -26 33 -22 48 4 17 0 24 -16 28 -11 3 -19 9
-16 13 3 5 2 11 -2 13 -5 3 -6 33 -5 67 3 45 8 63 20 68 27 10 52 36 52 54 0
9 5 20 10 23 8 5 8 11 0 20 -8 10 -8 35 -1 91 10 65 9 80 -4 94 -10 11 -13 27
-8 53 6 41 23 59 56 61 17 1 23 8 25 31 2 17 8 34 13 40 14 15 11 26 -8 24
-41 -4 -51 2 -57 33 -5 26 -2 36 15 49 17 13 21 23 16 47 -5 26 -1 35 26 58
18 15 35 35 39 45 4 11 22 26 40 35 22 11 42 33 59 68 22 44 31 51 59 54 28 3
31 6 26 28 -5 17 -2 24 9 24 8 0 15 7 15 15 0 8 -5 15 -10 15 -6 0 -13 -7 -16
-15 -4 -8 -15 -15 -26 -15 -10 0 -29 -11 -42 -25 -13 -14 -31 -25 -39 -25 -9
0 -24 -11 -33 -25 -18 -28 -31 -31 -57 -11 -26 20 -13 59 28 88 22 15 36 33
40 54 6 36 26 56 58 61 26 4 67 30 67 43 0 5 14 16 30 25 17 9 30 22 30 30 0
20 17 19 28 -1 5 -9 14 -14 21 -10 16 10 14 41 -3 56 -21 17 -10 37 25 44 16
3 29 12 29 20 0 21 40 64 46 49 3 -7 22 -15 42 -19 46 -9 64 -30 48 -56 -12
-21 4 -38 36 -38 16 0 31 27 27 46 -2 5 4 22 11 37 13 27 12 30 -10 48 -16 12
-21 22 -14 26 6 5 13 16 17 26 8 21 50 23 67 2 7 -8 10 -21 7 -29 -7 -18 24
-30 54 -21 11 4 28 23 37 43 14 33 16 34 20 15 4 -28 17 -29 35 -3 11 16 19
18 44 11 32 -9 47 -4 54 17 3 9 15 3 38 -17 34 -31 34 -31 49 -10 12 18 21 20
63 14 44 -6 49 -5 49 12 0 10 -5 24 -11 30 -20 20 1 35 40 28 29 -4 41 -1 65
20 31 27 52 33 40 13 -3 -7 4 -1 17 13 21 23 95 58 139 65 80 14 112 16 106 5
-4 -6 -16 -11 -27 -11 -15 0 -19 -7 -19 -31 l0 -30 30 21 c17 12 30 27 30 33
0 7 15 19 33 26 l32 13 -42 10 c-24 5 -43 13 -43 17 0 10 78 44 106 45 11 1
34 12 52 25 18 12 36 20 42 16 5 -3 19 -1 30 5 16 9 24 8 36 -5 21 -20 31 -19
37 5 3 13 14 20 29 20 31 0 41 -10 27 -27 -15 -18 -30 -17 -23 2 4 8 2 15 -4
15 -12 0 -22 -34 -13 -47 3 -5 17 -9 31 -9 14 0 36 -4 49 -8 17 -6 22 -5 16 4
-5 9 -2 10 12 6 30 -9 49 17 28 38 -9 9 -21 16 -26 16 -5 0 -9 14 -9 31 0 16
-4 28 -9 25 -12 -8 -41 3 -41 15 0 5 18 8 40 7 22 -2 40 -7 40 -12 0 -5 3 -7
6 -3 4 3 19 0 35 -8 21 -11 30 -12 35 -3 4 6 2 14 -5 16 -9 3 -9 7 0 18 7 9
19 12 28 8 9 -3 24 -9 34 -11z m3376 -5407 c12 -13 21 -27 20 -32 -1 -5 0 -11
1 -14 1 -3 2 -19 3 -37 2 -39 -15 -46 -69 -27 -21 8 -49 12 -61 9 -12 -3 -26
1 -30 7 -22 34 -41 40 -74 24 -38 -19 -42 -20 -37 -4 3 7 -7 23 -20 35 -28 26
-22 44 8 25 28 -17 100 -16 100 2 0 8 5 18 10 21 17 10 70 -5 70 -21 0 -18 -8
-18 -26 1 -9 8 -22 15 -29 15 -9 0 -12 -6 -9 -15 4 -8 12 -15 19 -15 7 0 16
-7 19 -15 3 -10 15 -14 31 -12 30 4 30 5 20 36 -5 16 -3 26 6 32 20 13 23 12
48 -15z m161 -85 c0 -5 -6 -12 -12 -14 -8 -3 -6 -6 5 -6 9 -1 17 -5 17 -11 0
-5 16 -12 35 -16 21 -4 40 -15 46 -27 8 -15 13 -16 19 -7 4 7 23 12 41 12 19
-1 49 -2 67 -2 25 0 32 -4 32 -20 0 -21 15 -27 25 -10 3 6 17 10 30 10 18 0
23 -4 19 -15 -4 -10 0 -15 14 -15 12 0 24 -5 27 -10 4 -6 16 -8 28 -5 17 5 19
4 7 -4 -8 -5 -12 -12 -10 -14 8 -7 100 17 100 26 0 4 -4 5 -10 2 -5 -3 -10 -4
-10 -1 0 3 4 7 9 11 13 8 32 -30 25 -49 -5 -13 -8 -13 -20 -2 -16 17 -54 10
-54 -10 0 -15 -18 -18 -44 -8 -9 3 -13 10 -10 15 8 13 -10 11 -24 -3 -10 -10
-17 -10 -33 0 -14 9 -24 10 -33 3 -16 -13 -85 -4 -114 15 -13 8 -31 12 -41 9
-14 -4 -20 1 -25 20 -7 27 -35 35 -32 9 0 -9 -5 -19 -11 -21 -8 -3 -13 5 -13
20 0 27 -27 57 -38 41 -9 -11 -72 -14 -72 -3 0 5 5 9 12 9 27 0 -9 16 -44 19
-15 2 -8 34 10 47 19 15 82 19 82 5z m-245 -762 c4 -12 7 -36 7 -55 0 -29 4
-34 23 -34 17 0 26 -9 34 -32 l12 -33 19 25 c17 21 21 23 30 10 14 -21 12 -30
-5 -30 -27 0 -16 -15 25 -33 28 -12 40 -23 38 -35 -2 -11 5 -18 20 -20 13 -2
22 -10 22 -20 0 -21 53 -46 80 -37 16 5 20 2 20 -14 0 -29 11 -26 42 11 14 18
30 29 35 25 4 -5 0 -15 -10 -22 -20 -14 -6 -32 15 -19 7 5 9 0 6 -14 -5 -17 2
-26 30 -42 28 -17 37 -18 43 -8 6 9 9 6 9 -10 0 -13 4 -20 10 -17 12 7 70 -16
70 -27 0 -14 23 -9 42 9 17 15 19 15 33 -3 8 -10 15 -14 15 -9 0 6 11 11 24
11 22 2 24 -2 20 -32 -2 -19 0 -34 6 -34 5 0 10 5 10 10 0 16 43 29 57 18 7
-5 17 -7 23 -3 14 9 -30 44 -47 38 -9 -4 -11 0 -7 12 5 13 14 15 36 11 23 -5
28 -2 26 11 -4 25 28 28 35 4 2 -10 1 -23 -4 -28 -5 -5 -3 -17 6 -29 14 -19
14 -18 15 4 0 12 4 22 10 22 17 0 65 -24 83 -42 23 -24 45 -23 24 0 -23 25
-21 35 10 50 40 18 60 15 68 -10 6 -22 7 -22 20 7 21 45 19 58 -7 50 -38 -12
-43 -11 -42 8 1 9 -2 17 -7 17 -4 0 -13 9 -19 21 -11 19 -10 20 10 9 15 -8 25
-9 33 -1 5 5 24 8 41 5 30 -5 30 -5 11 11 -17 14 -18 17 -5 25 8 6 21 8 28 5
15 -6 42 4 42 16 0 5 -8 9 -17 10 -12 1 -9 4 7 9 19 5 28 3 39 -11 16 -23 41
-25 41 -4 0 12 4 13 19 3 15 -9 23 -7 42 10 12 12 26 22 30 22 4 0 9 9 12 20
3 13 14 20 30 20 14 0 34 3 44 6 15 6 14 3 -4 -15 -26 -25 -29 -41 -9 -41 8 0
16 -7 20 -15 6 -16 36 -21 36 -6 0 5 -8 12 -17 15 -12 5 -14 9 -5 18 9 9 15 7
27 -8 8 -10 14 -26 15 -34 0 -23 -16 -43 -29 -36 -7 5 -11 -5 -11 -27 0 -23
-6 -37 -16 -41 -18 -7 -34 0 -34 15 0 6 -7 17 -15 26 -14 14 -15 13 -10 -10 6
-21 3 -26 -17 -30 -15 -3 -9 -5 15 -6 30 -1 40 -6 44 -21 3 -11 14 -20 24 -20
12 0 19 7 19 20 0 12 7 20 16 20 14 0 14 3 3 16 -10 13 -10 17 2 25 38 24 57
-15 37 -78 -11 -37 -28 -44 -28 -13 0 31 -15 24 -18 -8 -1 -21 4 -32 22 -41
26 -15 46 -8 46 15 0 19 6 18 28 -4 15 -15 42 -65 42 -77 0 -3 -7 -5 -15 -5
-8 0 -15 9 -15 20 0 28 -28 37 -45 14 -11 -15 -16 -16 -26 -7 -9 9 -17 9 -32
1 -20 -10 -20 -11 -2 -24 16 -12 16 -14 2 -19 -8 -4 -24 -2 -35 4 -16 8 -21 5
-35 -25 -9 -19 -28 -39 -43 -44 -14 -6 -23 -14 -20 -19 3 -5 -1 -14 -9 -21
-19 -16 -20 -51 -1 -44 8 3 17 1 21 -5 4 -7 -4 -11 -19 -11 -19 0 -26 5 -26
20 0 11 -6 20 -14 20 -16 0 -29 27 -20 42 4 6 10 6 17 -1 17 -17 30 -13 24 9
-4 15 0 20 16 20 21 0 62 20 43 20 -5 0 -3 7 4 15 7 9 10 18 7 22 -4 3 -9 -2
-13 -11 -3 -9 -15 -16 -26 -16 -17 0 -18 2 -8 15 7 9 10 18 7 21 -9 10 -43
-18 -55 -45 -13 -29 -99 -84 -89 -57 7 19 -18 40 -38 32 -22 -8 -19 -28 4 -21
16 5 19 1 19 -30 0 -29 -3 -35 -22 -35 -12 0 -27 -5 -33 -11 -8 -8 -15 -6 -25
10 -16 26 -24 26 -38 1 -8 -15 -8 -18 3 -14 8 3 22 -6 32 -22 14 -22 15 -28 3
-39 -14 -14 -78 -9 -78 6 0 9 -45 59 -53 59 -4 0 -14 -14 -23 -31 -11 -23 -13
-34 -5 -42 17 -17 13 -30 -6 -23 -9 4 -20 1 -25 -6 -6 -8 -7 1 -3 22 l7 35
-21 -22 c-25 -27 -41 -29 -41 -8 0 8 -5 15 -11 15 -7 0 -9 -10 -5 -26 4 -15 2
-32 -5 -40 -6 -8 -8 -14 -4 -14 4 0 0 -11 -9 -25 -16 -24 -24 -62 -8 -39 14
21 41 24 47 5 4 -13 12 -17 30 -13 14 2 28 8 30 13 3 4 17 -3 32 -17 14 -13
23 -27 20 -31 -4 -3 -16 2 -27 12 -21 19 -22 19 -49 -11 -22 -23 -28 -38 -24
-60 8 -51 12 -59 25 -46 7 7 24 12 39 12 15 0 29 3 32 8 2 4 2 1 1 -5 -2 -7 5
-17 14 -23 14 -8 15 -11 3 -19 -20 -13 -4 -31 29 -31 20 0 31 6 35 20 3 11 13
20 21 20 12 0 13 -4 3 -21 -9 -17 -8 -24 2 -31 10 -7 8 -8 -7 -3 -24 6 -53
-19 -34 -30 6 -4 16 -2 23 3 8 7 18 6 31 -4 18 -13 18 -15 4 -26 -9 -7 -18
-20 -21 -28 -4 -10 -6 -8 -6 7 -1 12 -5 24 -10 28 -6 3 -7 -9 -4 -30 4 -28 2
-35 -10 -35 -20 0 -35 22 -19 28 15 5 16 32 1 32 -6 0 -20 -5 -31 -11 -16 -9
-18 -13 -7 -20 10 -6 11 -11 3 -19 -15 -15 -47 11 -38 33 3 9 13 17 21 17 8 0
11 5 8 10 -3 6 -17 7 -31 4 -16 -4 -24 -2 -24 6 0 9 -3 10 -14 1 -7 -6 -21 -8
-31 -5 -13 5 -16 2 -13 -12 2 -12 11 -18 22 -16 21 4 46 -26 39 -45 -3 -7 0
-13 6 -13 6 0 11 -8 11 -17 -1 -16 -2 -17 -13 -2 -7 9 -22 19 -34 23 -14 4
-20 12 -16 22 3 7 0 14 -6 14 -11 0 -13 -6 -13 -40 0 -32 1 -33 17 -20 12 10
15 10 15 -3 0 -23 28 -43 42 -29 17 17 33 15 18 -3 -14 -17 0 -21 17 -4 11 11
33 5 33 -10 0 -4 -11 -13 -24 -19 -19 -8 -26 -8 -29 1 -3 9 -8 9 -18 0 -18
-18 -39 -16 -39 3 0 9 -7 14 -17 12 -13 -3 -17 -12 -16 -31 2 -31 -16 -37 -24
-7 -8 29 -20 24 -21 -8 0 -19 6 -31 20 -37 22 -10 65 -62 57 -69 -4 -4 -72
-15 -98 -16 -11 0 -10 -4 4 -14 13 -9 16 -18 10 -32 -5 -10 -9 -23 -9 -29 -2
-17 -36 -18 -36 -1 0 28 -28 17 -41 -16 l-13 -33 -4 35 c-2 19 -8 41 -14 47
-12 15 -42 18 -33 3 11 -17 -27 -11 -40 7 -7 10 -19 14 -29 10 -16 -6 -16 -9
-2 -22 8 -8 19 -15 25 -15 13 0 31 -33 31 -58 0 -24 -39 -67 -62 -68 -71 -3
-71 -3 -57 -21 13 -15 12 -15 -7 -5 -18 9 -20 8 -20 -11 1 -16 -6 -23 -28 -27
-16 -3 -31 -11 -34 -19 -3 -10 3 -12 29 -6 27 6 31 4 22 -5 -6 -7 -26 -15 -44
-19 -23 -5 -33 -13 -36 -29 -2 -13 3 -25 11 -28 12 -4 13 -12 5 -32 -5 -14 -8
-31 -5 -38 3 -7 -2 -10 -15 -7 -10 3 -19 0 -19 -6 0 -6 10 -9 23 -7 15 2 24
12 27 32 6 28 6 29 18 7 7 -12 12 -33 12 -47 0 -14 5 -28 10 -31 14 -9 12 -46
-2 -44 -24 3 -38 -1 -38 -11 0 -5 8 -10 17 -10 13 0 11 -6 -10 -28 -16 -16
-27 -39 -27 -55 0 -29 -17 -37 -26 -12 -3 8 4 28 16 45 17 24 18 30 6 30 -20
0 -52 -48 -48 -72 2 -10 -2 -18 -7 -18 -6 0 -10 -14 -9 -31 2 -19 -2 -34 -9
-36 -8 -3 -13 4 -13 16 0 11 -5 23 -10 26 -6 4 -10 12 -9 18 3 20 -12 47 -27
47 -8 0 -14 5 -14 11 0 12 43 1 48 -12 7 -17 32 -9 32 10 0 11 5 21 12 23 6 2
8 10 4 17 -5 7 -14 10 -22 7 -8 -3 -25 -1 -39 4 -19 7 -25 17 -25 41 0 22 -4
30 -13 26 -7 -3 -24 3 -37 13 -20 15 -22 21 -11 34 7 8 10 20 7 25 -8 12 32
41 56 41 10 0 18 4 18 9 0 5 -9 7 -20 4 -21 -5 -28 11 -10 22 6 3 10 11 10 17
0 10 -12 9 -55 -7 -16 -6 -15 -3 5 14 14 11 29 21 34 21 5 0 15 8 22 18 10 14
15 15 25 5 19 -19 29 -16 29 7 0 16 5 20 25 17 14 -1 31 -12 39 -22 21 -29 27
-15 14 31 -15 51 -15 51 -36 24 l-18 -23 -13 32 c-15 36 -30 41 -24 9 3 -19
-4 -27 -37 -42 -22 -11 -40 -25 -40 -32 0 -11 -21 -24 -41 -24 -17 0 -9 30 11
42 21 13 27 38 10 38 -5 0 -10 -6 -10 -13 0 -8 -9 -22 -20 -32 -12 -11 -18
-25 -15 -34 5 -13 3 -13 -12 1 -10 8 -24 13 -30 11 -7 -3 -14 1 -14 9 -1 7 -3
28 -5 47 -1 18 -5 44 -8 57 -7 25 0 29 23 15 7 -5 10 -14 7 -20 -4 -7 1 -11
12 -11 24 0 36 26 16 34 -19 7 -18 26 1 26 8 0 15 5 15 10 0 6 10 8 23 5 16
-4 29 0 41 14 11 12 26 21 34 21 13 0 12 3 -2 19 -16 18 -19 18 -37 3 -10 -9
-19 -22 -19 -29 0 -9 -10 -11 -32 -6 -41 7 -42 8 -34 28 4 11 13 14 25 10 21
-6 61 21 61 42 0 7 5 13 10 13 6 0 10 5 10 11 0 5 -4 8 -9 5 -5 -4 -20 -2 -33
3 -30 11 -34 71 -5 71 17 0 17 2 -2 29 -25 35 -26 40 -4 57 10 7 15 16 10 20
-4 4 -13 0 -20 -8 -6 -9 -21 -18 -31 -20 -19 -3 -33 -38 -15 -38 5 0 9 -4 9
-10 0 -5 -7 -10 -16 -10 -9 0 -18 -9 -21 -20 -3 -11 -9 -20 -14 -20 -5 0 -9
-7 -9 -15 0 -8 -9 -19 -19 -25 -26 -13 -31 -13 -31 5 0 8 -4 15 -9 15 -17 0
-31 -28 -24 -46 6 -17 5 -17 -10 -5 -9 7 -17 22 -17 32 0 18 18 24 62 21 22
-2 48 29 30 36 -10 3 -8 8 5 18 17 13 17 15 -4 33 -13 11 -23 24 -23 29 0 5
-7 15 -15 22 -21 18 -19 33 4 25 25 -8 35 9 16 25 -8 7 -12 16 -10 21 3 4 -3
12 -12 18 -10 6 -13 11 -6 11 7 0 10 7 7 15 -4 8 -1 15 5 15 14 0 34 -39 27
-55 -2 -7 2 -19 10 -25 17 -15 18 -36 2 -44 -10 -5 -10 -7 0 -12 6 -3 12 -12
12 -20 0 -8 7 -14 16 -14 14 0 15 7 10 44 -6 38 -4 44 14 49 24 6 27 27 4 27
-14 0 -14 3 -4 15 10 12 10 15 -3 15 -9 0 -20 7 -25 17 -6 9 -26 18 -48 20
-43 4 -65 27 -62 63 1 14 -1 31 -6 38 -4 7 -5 16 -1 20 10 11 25 -21 19 -43
-6 -25 30 -67 51 -59 19 8 19 23 0 30 -23 9 -18 32 8 36 12 2 34 1 50 -3 15
-4 27 -4 27 1 0 15 44 16 72 2 42 -20 47 -36 9 -29 -23 5 -33 3 -37 -8 -4 -10
-12 -12 -30 -5 -19 8 -24 6 -24 -6 0 -8 -7 -17 -15 -20 -12 -5 -13 -10 -5 -19
15 -17 66 -12 62 6 -2 8 7 4 20 -8 15 -14 37 -23 55 -23 41 0 86 -17 78 -30
-3 -5 -1 -10 4 -10 14 0 14 2 -4 36 -8 15 -21 29 -30 30 -45 7 -65 34 -25 34
22 0 27 16 8 23 -7 3 1 10 19 17 40 15 51 38 17 38 -13 0 -24 -6 -24 -13 0 -7
-9 -15 -20 -18 -11 -3 -20 -1 -20 4 0 5 -6 9 -14 9 -19 0 -58 50 -52 67 3 7 2
13 -3 13 -5 0 -11 -10 -14 -21 l-6 -21 -27 21 c-31 24 -44 27 -44 7 0 -7 -9
-16 -20 -19 -11 -3 -20 -13 -20 -22 0 -9 -6 -15 -12 -12 -7 2 -13 16 -13 32
-1 20 -7 30 -23 36 -17 7 -22 15 -20 36 3 25 0 28 -24 26 -16 -1 -28 2 -28 8
0 5 12 9 28 9 26 0 27 2 28 49 0 46 -1 48 -28 49 -18 0 -28 -4 -28 -14 0 -8
-5 -12 -11 -9 -14 9 -1 64 22 94 27 34 25 54 -6 49 -28 -6 -32 4 -10 26 18 18
4 66 -20 66 -8 0 -15 7 -15 15 0 18 12 19 29 3 10 -11 15 -9 26 6 8 10 18 15
23 12 5 -3 9 8 8 24 -1 34 -10 38 -25 13 -9 -17 -12 -16 -37 8 -28 29 -25 49
7 49 16 0 19 -5 14 -22 -3 -13 -3 -18 2 -13 12 16 51 16 57 -1 3 -8 1 -14 -5
-14 -12 0 22 -49 34 -50 5 0 5 6 1 12 -13 21 -12 50 3 55 25 10 14 33 -16 33
-21 0 -32 6 -36 20 -3 11 -14 20 -23 20 -13 0 -13 2 3 13 13 10 15 16 6 21 -7
4 -9 16 -5 28 6 20 -24 58 -46 58 -5 0 -10 13 -10 29 0 21 6 30 22 34 18 5 19
8 8 21 -7 9 -21 16 -31 16 -11 0 -19 5 -19 10 0 6 7 10 15 10 18 0 20 17 3 22
-6 2 -8 10 -4 17 6 9 12 9 30 -2 29 -19 91 -33 82 -18 -4 6 -15 11 -24 12 -11
0 -12 3 -4 6 18 7 15 33 -5 33 -15 0 -16 2 -3 10 8 5 11 10 7 10 -4 0 -19 -7
-32 -16 -16 -11 -29 -13 -40 -6 -15 8 -14 11 10 30 23 18 26 26 20 54 -5 27
-4 30 5 15 14 -22 33 -12 25 14 -4 13 -2 19 9 19 8 0 18 -9 21 -21z m-6142
-33 c9 -7 17 -23 17 -35 0 -27 26 -28 40 -1 15 28 48 25 60 -4 5 -13 5 -62 1
-112 -5 -49 -6 -157 -4 -241 3 -124 1 -157 -12 -182 -31 -61 -75 -60 -125 2
-21 27 -25 41 -24 98 0 46 6 75 18 94 14 21 16 37 11 74 -4 25 -11 52 -17 58
-6 7 -7 20 -4 29 4 9 1 23 -6 31 -15 19 -16 140 0 176 13 30 19 32 45 13z
m2417 -5291 c0 -8 13 -24 29 -36 26 -19 53 -68 30 -53 -5 3 -9 -6 -9 -20 0
-14 5 -28 10 -31 18 -11 10 -23 -36 -54 -51 -35 -57 -37 -74 -16 -9 11 -9 22
1 52 7 21 13 42 14 48 0 5 9 11 20 13 25 5 45 30 38 48 -4 10 -15 13 -37 9
-20 -4 -38 -1 -51 8 -19 15 -18 16 15 30 45 20 50 20 50 2z"/>
<path d="M8116 20302 c-3 -6 0 -13 6 -16 9 -4 8 -5 -2 -5 -36 3 -50 -3 -80
-28 -30 -25 -33 -25 -45 -10 -16 23 -25 21 -25 -3 0 -11 7 -20 15 -20 8 0 15
-5 15 -11 0 -6 6 -9 13 -6 6 2 21 0 31 -6 16 -8 18 -6 12 8 -5 13 -2 16 10 11
8 -3 17 -6 18 -6 2 0 0 -17 -3 -37 -7 -39 -31 -59 -31 -24 0 14 -5 19 -14 15
-9 -3 -29 9 -50 30 -37 38 -52 46 -42 21 4 -12 -2 -15 -37 -13 -39 3 -42 1
-42 -22 0 -15 8 -29 20 -35 33 -16 67 -52 57 -59 -6 -3 -30 -3 -54 0 -23 4
-57 6 -74 6 -18 -1 -41 6 -54 18 -24 21 -33 24 -62 21 -10 -1 -18 4 -18 12 0
13 -27 26 -53 27 -10 0 3 -50 19 -74 7 -10 10 -25 7 -32 -7 -19 1 -18 46 6 35
18 40 18 52 4 11 -14 10 -18 -4 -29 -9 -7 -17 -17 -17 -22 0 -6 -20 -10 -45
-9 -25 1 -45 -2 -45 -6 0 -5 -6 -8 -14 -8 -8 0 -20 -13 -27 -28 -9 -21 -20
-29 -38 -29 -14 0 -43 -3 -65 -7 -38 -7 -38 -8 -32 -44 3 -20 1 -44 -4 -52 -6
-10 -4 -20 6 -32 15 -15 12 -17 -28 -25 -29 -6 -43 -14 -43 -24 0 -23 -44 -67
-83 -84 -38 -17 -35 -35 6 -30 15 2 31 4 36 4 4 1 6 7 3 15 -6 16 39 40 48 26
3 -5 12 -7 20 -3 10 3 15 -2 15 -16 0 -18 -6 -21 -38 -21 -36 0 -41 -4 -60
-42 -25 -50 -33 -129 -14 -136 10 -3 10 -7 1 -18 -6 -7 -9 -20 -5 -29 3 -9 -3
-19 -14 -25 -11 -6 -20 -20 -20 -30 0 -13 -7 -20 -20 -20 -11 0 -20 -7 -20
-15 0 -9 -7 -18 -15 -21 -27 -11 -16 -24 20 -24 31 0 35 -3 35 -25 0 -14 5
-25 11 -25 7 0 9 11 6 30 -6 25 -1 33 27 55 18 14 36 25 39 25 4 0 7 -17 8
-37 0 -21 3 -32 6 -25 2 6 9 12 14 12 6 0 8 -4 4 -9 -3 -5 -1 -12 4 -15 14 -9
32 19 29 45 -2 18 2 25 18 27 12 2 30 12 39 22 9 10 23 16 30 14 7 -3 23 4 34
15 12 12 30 21 40 21 11 0 22 4 25 8 5 8 88 30 135 34 34 4 38 26 7 34 -14 3
-26 10 -26 15 0 5 -11 9 -25 9 -14 0 -28 7 -31 15 -4 8 -14 15 -24 15 -21 0
-44 25 -36 39 8 12 93 41 123 41 13 0 31 9 40 20 23 27 36 25 29 -4 -7 -27 19
-40 48 -24 18 10 56 2 56 -12 0 -20 65 -1 85 24 25 31 35 33 28 6 -4 -14 0
-20 12 -20 12 0 15 5 10 21 -6 19 -4 20 29 14 34 -7 36 -6 36 19 0 14 5 26 11
26 5 0 8 -4 5 -9 -3 -5 10 -19 29 -32 19 -13 37 -31 40 -40 5 -14 36 -18 73
-10 1 1 -5 12 -14 25 -10 16 -21 23 -32 19 -14 -5 -15 -3 -4 8 17 18 15 39 -3
39 -8 0 -15 7 -15 15 0 8 5 15 10 15 6 0 13 -7 16 -15 4 -8 12 -15 19 -15 7 0
18 -6 24 -14 7 -8 32 -20 56 -27 24 -7 41 -17 39 -21 -3 -4 4 -8 15 -8 12 0
21 -4 21 -8 0 -17 -13 -21 -31 -11 -22 11 -62 -6 -56 -24 2 -7 19 -16 38 -22
19 -5 40 -14 48 -19 10 -6 16 -6 19 2 2 7 13 12 24 12 13 0 18 -5 15 -14 -3
-8 -3 -17 1 -21 14 -14 8 -94 -8 -100 -8 -4 -16 -1 -18 4 -2 6 -8 8 -13 5 -5
-3 -51 -7 -102 -9 -107 -4 -147 -12 -147 -30 0 -8 -15 -17 -32 -20 -18 -4 -36
-12 -39 -17 -3 -5 -23 -11 -45 -13 -21 -2 -40 -8 -42 -14 -2 -6 -18 -11 -36
-11 -20 0 -40 -8 -51 -20 -10 -11 -24 -20 -31 -20 -7 0 -23 -13 -36 -30 -12
-16 -29 -30 -39 -30 -22 0 -33 -29 -14 -36 21 -9 18 -24 -4 -24 -24 0 -62 -46
-54 -66 3 -8 0 -14 -6 -14 -6 0 -11 -7 -11 -15 0 -9 -6 -12 -15 -9 -19 8 -19
5 1 -35 13 -25 13 -35 4 -46 -7 -8 -18 -15 -25 -15 -19 0 -26 -26 -15 -55 l9
-24 38 17 c56 26 83 45 83 59 0 17 17 17 24 1 5 -10 7 -10 12 0 3 6 10 12 16
12 12 0 39 26 33 32 -9 9 54 70 64 63 17 -10 14 -85 -3 -85 -8 0 -16 -10 -18
-22 -2 -18 -10 -23 -33 -24 -16 -1 -34 4 -38 10 -5 7 -7 3 -5 -9 2 -15 11 -20
33 -21 40 -1 72 -19 80 -44 3 -11 11 -20 17 -20 6 0 8 -11 6 -25 -3 -14 -1
-28 3 -31 5 -3 9 -14 9 -26 0 -15 5 -19 18 -15 42 12 47 11 47 -3 0 -20 32
-38 61 -34 21 2 22 0 13 -18 -8 -16 -7 -22 8 -33 10 -7 20 -10 23 -5 7 11 62
16 78 6 32 -19 19 4 -19 35 -76 64 -149 141 -149 160 0 11 -4 19 -10 19 -12 0
-40 65 -40 94 0 12 -5 27 -11 33 -15 15 8 96 26 90 7 -3 21 1 32 8 10 8 15 15
11 15 -4 0 4 11 16 25 16 17 37 27 63 29 25 2 39 9 41 20 2 9 -1 16 -7 16 -6
0 -11 5 -11 10 0 6 7 10 15 10 8 0 15 -7 15 -15 0 -8 5 -15 10 -15 6 0 10 5
10 10 0 6 6 10 13 10 7 0 20 9 30 21 12 14 24 18 38 14 13 -4 25 -1 32 9 8 10
35 18 75 22 l62 7 0 -31 c0 -22 -6 -32 -20 -37 -11 -3 -20 -13 -20 -21 0 -8
-6 -17 -14 -20 -61 -23 -70 -329 -12 -392 11 -13 20 -27 20 -30 -2 -10 64 -82
76 -82 5 0 14 -8 19 -17 11 -22 116 -78 129 -69 5 3 12 -1 16 -9 3 -10 19 -15
43 -15 21 0 45 -4 53 -10 9 -6 17 -5 21 2 8 12 69 1 69 -13 0 -5 -14 -8 -31
-7 -19 2 -34 -2 -36 -9 -3 -8 6 -13 24 -14 17 -1 21 -3 11 -6 -33 -8 -18 -25
20 -22 39 3 62 15 62 31 0 6 -7 5 -15 -2 -12 -10 -15 -10 -15 1 1 25 36 63 54
56 9 -4 24 2 35 14 11 12 25 18 31 14 8 -5 10 -2 6 11 -11 36 125 93 138 58 3
-8 13 -14 22 -14 11 0 14 5 10 16 -3 9 -6 18 -6 20 0 2 -18 4 -40 4 -40 0 -53
13 -25 24 8 3 15 14 15 25 0 28 11 52 21 45 5 -3 9 2 9 10 0 8 9 18 21 21 15
5 17 10 9 20 -8 10 -7 16 7 24 15 8 16 13 7 29 -10 15 -8 21 8 31 24 15 36 7
20 -12 -8 -9 -9 -24 -2 -47 10 -37 5 -53 -10 -30 -6 8 -10 10 -10 5 0 -6 11
-26 24 -45 22 -33 22 -35 4 -50 -16 -14 -17 -18 -4 -42 14 -27 14 -28 -11 -28
-15 0 -24 -3 -20 -6 11 -11 -36 -54 -54 -49 -24 8 -31 -7 -16 -38 9 -20 17
-25 37 -21 14 2 31 0 39 -5 12 -8 12 -13 -3 -35 l-17 -26 -35 26 c-19 15 -37
37 -40 50 -4 15 -10 21 -18 16 -6 -4 -18 -7 -26 -8 -8 -1 -25 -2 -38 -3 -19
-1 -21 -4 -12 -21 8 -16 8 -18 -4 -14 -8 3 -19 -3 -26 -15 -7 -14 -7 -21 0
-21 5 0 10 5 10 11 0 6 7 8 16 5 25 -10 61 4 73 27 l12 22 -5 -22 c-2 -14 0
-20 9 -17 7 3 18 -8 26 -28 7 -18 14 -36 17 -40 2 -5 -5 -8 -17 -8 -11 0 -32
-5 -48 -11 -15 -6 -53 -11 -84 -10 -43 2 -58 -1 -62 -13 -5 -13 -10 -13 -32
-2 -20 11 -32 11 -50 2 -14 -6 -25 -16 -25 -22 0 -15 -39 -64 -51 -64 -6 0 -7
9 -4 20 4 14 2 20 -9 20 -8 0 -22 3 -30 6 -13 5 -16 -2 -15 -42 1 -27 1 -53
-1 -59 -1 -5 1 -20 5 -33 7 -22 11 -23 66 -18 l59 6 0 -29 c0 -17 -5 -33 -10
-36 -12 -7 -4 -25 11 -25 5 0 9 8 9 19 0 30 25 45 43 26 9 -8 20 -15 26 -15 6
0 11 -7 11 -15 0 -8 -4 -15 -10 -15 -5 0 -10 -7 -10 -15 0 -9 -10 -20 -22 -25
-14 -5 -17 -9 -8 -9 9 -1 21 4 28 11 8 8 15 8 25 -1 12 -9 16 -8 21 4 7 19 26
20 26 0 0 -8 5 -15 10 -15 6 0 10 7 10 16 0 14 3 14 15 4 11 -9 15 -9 15 -1 0
7 9 9 24 5 13 -3 27 -1 30 5 4 6 23 11 42 11 31 0 34 -2 24 -19 -6 -12 -6 -22
-1 -25 5 -4 12 0 14 6 4 10 8 10 15 -1 6 -8 17 -11 25 -8 10 4 17 -2 21 -16 5
-22 6 -22 32 7 16 16 23 31 17 35 -6 3 -8 13 -4 22 6 16 9 16 44 1 44 -20 45
-25 13 -40 -34 -15 -52 -50 -31 -58 23 -9 45 14 25 26 -9 6 -10 10 -3 10 6 0
18 -7 27 -15 9 -9 17 -11 21 -5 3 5 15 10 26 10 11 0 22 6 25 14 3 8 14 16 24
19 25 7 35 -21 14 -44 -18 -20 -11 -41 11 -32 9 3 15 18 15 35 0 31 3 31 59
10 8 -3 12 -1 8 5 -11 17 16 62 41 68 15 4 22 13 22 28 0 13 11 34 25 47 14
13 25 29 25 35 0 7 11 17 25 23 14 6 25 18 25 25 0 7 8 22 18 33 20 22 25 53
20 119 -2 23 5 37 32 62 19 18 39 33 43 33 12 0 36 63 29 75 -3 5 -5 24 -3 41
1 18 -4 38 -13 47 -9 9 -16 22 -16 29 0 7 -9 24 -20 38 -25 32 -25 50 0 50 18
0 19 5 15 52 -2 29 -8 54 -14 56 -5 2 -15 20 -22 40 -7 20 -21 43 -31 50 -11
8 -17 21 -13 31 3 11 -7 29 -30 51 -19 19 -35 37 -35 42 0 11 -96 108 -108
108 -5 0 -16 7 -23 16 -7 9 -41 29 -76 46 -35 16 -63 34 -63 39 0 5 -11 9 -23
9 -32 0 -37 7 -23 35 12 28 19 30 46 15 11 -6 21 -6 24 -1 3 5 32 12 63 15 32
4 67 10 78 13 18 5 18 4 6 -11 -8 -9 -11 -19 -8 -22 7 -8 47 5 44 14 -1 4 2 7
8 7 5 0 8 -7 7 -15 -3 -12 -1 -13 9 -2 7 6 23 12 35 12 12 0 27 7 34 15 10 12
16 13 27 4 7 -7 16 -9 20 -6 3 4 11 3 17 -2 6 -5 28 -12 49 -15 33 -5 40 -3
44 14 5 21 19 27 25 11 4 -11 68 -2 68 10 0 5 -7 9 -15 9 -8 0 -15 4 -15 9 0
9 45 24 80 27 8 0 21 2 28 3 14 1 17 41 2 41 -5 0 -13 -6 -17 -14 -7 -12 -11
-12 -28 0 -19 14 -19 15 3 20 12 4 22 10 22 15 0 5 11 2 24 -6 21 -14 24 -14
30 0 3 9 -1 18 -10 22 -11 4 -8 10 16 24 38 24 38 24 32 -6 -6 -33 19 -33 35
0 9 20 8 25 -2 25 -7 0 -19 14 -27 30 -9 21 -20 30 -36 30 -13 0 -21 -4 -18
-8 2 -4 1 -14 -5 -22 -7 -12 -9 -10 -9 8 0 12 -4 22 -10 22 -5 0 -10 7 -10 15
0 8 5 15 11 15 8 0 8 5 -1 15 -7 8 -25 15 -40 15 -31 0 -53 20 -48 45 2 10 -4
21 -12 25 -8 4 -25 12 -38 19 -13 6 -28 9 -33 5 -7 -4 -9 1 -4 15 5 15 2 21
-9 21 -9 0 -16 4 -16 8 0 15 24 32 44 32 20 1 20 1 3 11 -13 8 -22 7 -33 -2
-8 -6 -35 -14 -61 -16 -42 -3 -45 -2 -40 16 4 18 -1 21 -45 27 -35 5 -46 10
-39 17 18 18 13 24 -19 24 -30 0 -39 -10 -20 -22 16 -10 2 -25 -23 -25 -16 0
-18 3 -9 12 17 17 15 41 -2 35 -8 -3 -16 -2 -18 2 -2 5 -13 12 -26 15 -16 5
-22 4 -20 -5 2 -8 -8 -14 -26 -14 -23 -1 -31 5 -39 25 -8 22 -15 25 -43 22
-20 -3 -34 0 -34 7 0 6 -16 10 -39 8 -33 -2 -38 -5 -30 -19 12 -23 11 -28 -6
-28 -8 0 -15 7 -15 16 0 10 -6 14 -15 10 -18 -7 -20 5 -3 22 10 10 10 15 -2
22 -23 15 -32 12 -26 -7 3 -10 -2 -27 -10 -38 -15 -20 -15 -20 -33 2 -13 15
-25 20 -40 16 -16 -4 -21 -1 -21 15 0 17 -5 19 -47 15 -33 -3 -44 -1 -34 5 24
17 2 33 -35 26 -23 -4 -34 -2 -34 6 0 6 -12 10 -27 9 -38 -3 -73 10 -73 27 0
8 -7 14 -15 14 -8 0 -15 5 -15 10 0 6 6 10 13 10 8 0 24 12 38 26 l24 26 -25
-7 c-32 -10 -70 -35 -70 -46 0 -13 -34 -11 -47 2 -8 8 -14 6 -22 -9 -13 -24
-61 -18 -68 9 -3 11 -13 20 -22 20 -9 1 -31 3 -49 5 -19 1 -39 10 -46 20 -12
16 -14 16 -24 -1 -8 -16 -13 -17 -26 -6 -9 7 -16 20 -16 28 0 19 -78 12 -92
-8 -7 -11 -11 -11 -15 -1 -7 17 -23 15 -23 -4 0 -8 -4 -13 -10 -9 -6 4 -6 15
1 32 12 32 4 41 -18 20 -11 -9 -36 -15 -65 -15 -26 0 -52 -3 -57 -7 -6 -3 -23
3 -38 14 -32 24 -107 38 -117 23z"/>
<path d="M7890 18569 c-14 -18 -27 -37 -29 -43 -2 -6 -11 -19 -19 -29 -20 -23
-17 -97 4 -114 9 -6 13 -16 10 -21 -3 -5 5 -19 17 -30 22 -21 49 -26 128 -22
33 2 36 4 32 29 -1 14 -4 54 -5 89 -2 45 -6 61 -15 57 -9 -3 -13 8 -13 35 0
33 -3 40 -20 40 -13 0 -20 7 -20 20 0 32 -41 25 -70 -11z"/>
<path d="M1540 6602 c0 -10 -5 -23 -12 -30 -9 -9 -9 -12 0 -12 9 0 11 -22 8
-80 -2 -44 0 -83 5 -86 5 -3 9 -15 9 -28 0 -12 3 -26 7 -30 8 -7 7 -7 17 -86
6 -46 13 -61 47 -96 27 -27 49 -66 70 -120 47 -122 99 -286 99 -311 0 -8 29
-74 64 -147 35 -72 75 -156 89 -187 16 -36 33 -58 46 -62 20 -5 21 -2 21 101
0 139 -33 249 -95 324 -12 15 -30 58 -40 97 -9 39 -25 81 -35 94 -51 65 -77
134 -84 222 -7 88 -28 147 -60 174 -9 8 -16 27 -16 44 0 30 -14 82 -33 124 -5
12 -7 31 -4 42 7 26 -16 45 -48 39 -19 -4 -25 -1 -25 13 0 11 -7 19 -15 19 -8
0 -15 -8 -15 -18z"/>
<path d="M13951 5900 c-17 -22 -40 -40 -49 -40 -10 0 -39 -19 -65 -42 -42 -39
-46 -46 -41 -78 4 -24 -1 -47 -15 -75 -25 -47 -26 -61 -5 -110 12 -30 13 -47
4 -87 -11 -53 1 -128 21 -128 5 0 17 17 25 38 9 20 22 51 29 67 7 17 21 53 31
80 10 28 26 64 35 80 10 17 27 66 39 110 12 44 35 104 51 134 38 71 38 91 1
91 -21 0 -37 -10 -61 -40z"/>
<path d="M15625 5931 c-89 -6 -148 -26 -157 -53 -4 -10 -13 -10 -45 0 -61 18
-122 14 -178 -11 -78 -37 -153 -59 -174 -52 -27 8 -130 -20 -152 -42 -11 -10
-24 -49 -32 -89 -8 -45 -21 -79 -35 -94 -31 -33 -28 -73 7 -107 33 -32 51 -79
44 -115 -4 -19 3 -30 30 -51 26 -20 40 -41 51 -80 8 -29 30 -74 47 -100 26
-39 33 -63 39 -125 9 -88 -4 -128 -45 -138 -35 -9 -31 -21 16 -63 34 -30 42
-44 46 -82 5 -42 3 -48 -25 -67 -25 -18 -37 -21 -74 -14 -42 8 -46 7 -85 -27
-62 -55 -174 -101 -247 -101 -40 0 -76 28 -76 58 0 27 -28 60 -38 45 -14 -21
-8 -205 8 -233 8 -14 16 -43 19 -64 4 -22 12 -41 20 -44 11 -4 13 5 7 45 -5
43 -3 52 16 70 13 11 33 26 45 32 28 14 174 25 190 13 7 -4 15 -22 19 -38 5
-24 0 -37 -19 -58 -20 -22 -24 -34 -20 -62 6 -39 -4 -56 -60 -91 -47 -29 -59
-58 -45 -109 21 -80 20 -100 -2 -144 -19 -38 -21 -48 -11 -79 6 -20 25 -54 41
-76 32 -43 41 -59 61 -115 7 -19 34 -57 59 -85 25 -27 61 -69 78 -92 40 -51
58 -58 105 -38 28 11 42 12 69 3 48 -15 60 -35 53 -85 -6 -38 -4 -43 28 -67
19 -14 38 -26 44 -26 5 0 45 -27 89 -60 124 -95 334 -194 358 -170 12 12 0 39
-21 47 -61 23 -50 123 13 123 41 0 119 -39 143 -71 29 -39 63 -38 93 2 29 39
60 55 123 63 42 6 53 4 72 -13 41 -39 39 -58 -12 -108 -35 -35 -45 -52 -43
-72 3 -23 7 -26 38 -25 64 2 297 120 400 202 68 55 193 185 250 260 54 73 103
167 115 222 4 19 27 88 52 152 l44 117 0 233 c0 224 -13 361 -40 438 -5 14
-19 68 -31 120 -25 110 -69 260 -81 276 -5 5 -15 35 -23 65 -7 30 -30 91 -50
136 -20 45 -36 84 -36 87 0 4 -12 25 -27 49 -15 23 -35 59 -44 79 -10 20 -47
64 -83 99 -36 34 -66 67 -66 74 0 16 -99 115 -115 115 -8 0 -24 -11 -37 -24
-13 -14 -35 -30 -50 -35 -22 -8 -28 -17 -28 -38 0 -31 25 -67 53 -76 25 -9 21
-24 -8 -31 -14 -4 -25 -11 -25 -16 0 -5 -20 -29 -45 -54 -25 -26 -45 -50 -45
-55 0 -6 -14 -11 -32 -13 -24 -2 -34 -9 -38 -26 -3 -12 -20 -31 -38 -42 -18
-11 -30 -25 -27 -30 6 -10 -37 -24 -56 -18 -16 5 -20 32 -24 141 -3 82 -28
177 -47 177 -17 0 -41 -68 -50 -139 -5 -41 -14 -81 -20 -88 -5 -7 -8 -19 -4
-28 3 -8 -2 -19 -13 -25 -25 -13 -41 7 -41 51 0 19 -5 73 -11 122 -12 86 -12
88 12 113 13 14 43 30 66 37 53 14 64 49 27 88 -41 43 -26 134 25 145 65 13
85 20 89 32 2 7 -5 12 -15 12 -10 0 -45 7 -77 15 -71 19 -163 24 -281 16z
m-293 -372 c42 -22 60 -120 38 -199 -6 -23 -22 -43 -45 -57 -41 -27 -53 -28
-82 -5 -20 15 -24 29 -29 107 -5 79 -3 94 15 122 17 27 30 34 74 42 5 0 17 -4
29 -10z m-30 -363 c21 -16 33 -47 42 -108 6 -39 4 -50 -13 -67 -31 -31 -66
-36 -102 -15 -76 45 -95 121 -43 175 31 32 85 39 116 15z m408 -245 c6 -16 11
-66 9 -112 -1 -46 4 -105 11 -130 10 -40 9 -51 -4 -77 -9 -17 -21 -65 -27
-106 -14 -90 -36 -132 -78 -141 -32 -7 -75 -50 -86 -85 -4 -13 1 -34 14 -56
27 -45 27 -46 -9 -83 -37 -41 -86 -49 -118 -22 -27 24 -40 84 -23 105 17 20
27 126 13 126 -6 0 -14 10 -17 23 -4 12 -14 36 -22 54 -13 29 -13 36 6 77 13
30 29 50 46 56 l26 10 -20 27 c-19 26 -20 38 -14 151 7 145 12 155 105 200 84
41 87 41 135 25 29 -10 45 -23 53 -42z m559 -111 c32 -27 37 -29 58 -15 25 17
73 20 73 5 0 -26 45 -50 96 -50 44 0 54 -4 68 -25 36 -55 9 -163 -49 -196 -25
-14 -36 -15 -65 -6 -34 12 -36 15 -57 101 -27 107 -46 131 -104 130 -22 -1
-45 -6 -51 -12 -20 -20 -98 24 -98 56 0 8 10 23 22 34 28 24 58 17 107 -22z
m-1211 -982 c9 -9 20 -9 48 1 22 8 53 10 80 6 38 -5 50 -13 75 -48 42 -58 36
-80 -23 -90 -43 -8 -51 -6 -93 22 -60 41 -79 41 -71 1 3 -17 17 -45 30 -63 41
-54 48 -84 30 -122 -17 -36 -57 -53 -80 -34 -33 27 -114 161 -129 213 -26 88
-4 126 74 126 26 0 52 -5 59 -12z m475 -161 c-1 -21 4 -27 30 -33 41 -8 52
-17 104 -88 47 -64 53 -97 27 -151 l-16 -34 -76 5 c-42 2 -93 5 -113 6 -35 1
-35 1 -47 64 -19 102 -11 164 26 187 7 5 10 17 7 27 -4 12 2 24 17 34 29 21
43 15 41 -17z"/>
<path d="M5135 5882 c-3 -3 -33 -9 -67 -13 -33 -4 -65 -13 -70 -21 -13 -19 0
-129 18 -149 22 -25 163 -91 176 -83 6 4 47 6 90 5 63 -1 91 -7 134 -27 114
-54 122 -135 38 -364 -13 -36 -24 -79 -24 -96 0 -53 -24 -74 -86 -74 -45 0
-59 4 -79 25 -15 14 -25 36 -25 52 0 43 -11 73 -25 73 -23 0 -55 -51 -55 -86
0 -40 -17 -81 -37 -89 -18 -6 -63 14 -76 36 -8 12 -5 33 7 73 15 47 16 65 7
101 -6 25 -8 74 -5 117 7 78 -4 118 -31 118 -17 0 -30 -23 -38 -67 -4 -18 -17
-50 -31 -70 -18 -30 -25 -56 -29 -119 -3 -52 -13 -99 -27 -130 -12 -27 -26
-87 -31 -134 -14 -122 -47 -243 -89 -330 -48 -98 -57 -125 -64 -187 -3 -30
-16 -72 -30 -95 -14 -24 -38 -83 -55 -133 -17 -49 -39 -113 -49 -141 -11 -29
-25 -76 -32 -105 -7 -30 -23 -76 -36 -104 -12 -27 -31 -77 -43 -110 -11 -33
-43 -125 -72 -205 -28 -80 -57 -174 -64 -210 -8 -36 -23 -92 -34 -124 -12 -35
-21 -84 -21 -119 0 -45 -6 -70 -24 -101 -13 -23 -45 -106 -71 -186 -93 -286
-126 -383 -141 -412 -9 -16 -13 -37 -10 -45 3 -8 -6 -49 -20 -91 -15 -42 -32
-111 -39 -152 -7 -41 -19 -100 -28 -130 -8 -30 -27 -113 -41 -185 -15 -71 -33
-143 -41 -160 -8 -16 -21 -68 -29 -115 -9 -47 -24 -103 -35 -125 -12 -22 -25
-62 -30 -90 -6 -27 -24 -88 -42 -135 -17 -47 -37 -125 -45 -174 -12 -78 -12
-92 1 -120 14 -29 23 -34 78 -45 75 -15 316 -17 372 -3 22 5 63 10 90 11 64 2
86 24 113 111 19 60 27 92 51 210 5 25 21 83 35 129 14 47 26 96 26 109 0 32
46 216 70 277 11 28 26 82 35 120 18 86 33 144 52 210 9 28 25 97 38 155 12
58 32 132 45 165 12 33 30 92 40 130 9 39 24 84 32 100 8 17 20 53 27 80 6 28
22 86 36 130 13 44 44 168 70 275 26 107 55 222 65 255 11 33 33 104 49 158
17 54 31 109 31 122 0 32 46 136 67 152 13 10 21 7 45 -19 16 -18 41 -53 54
-80 27 -54 51 -61 86 -28 30 28 72 26 92 -5 31 -48 21 -75 -52 -137 l-33 -27
21 -77 c11 -43 20 -84 20 -92 0 -9 11 -29 24 -46 12 -17 31 -46 40 -63 25 -49
52 -50 133 -9 88 45 140 48 149 10 5 -21 1 -31 -22 -50 -16 -13 -36 -24 -44
-24 -26 -1 -91 -26 -106 -42 -33 -32 -29 -89 11 -174 51 -108 84 -213 100
-314 7 -47 18 -105 24 -129 7 -23 15 -68 20 -100 13 -84 102 -335 139 -391 9
-14 28 -45 42 -70 45 -80 64 -110 103 -162 20 -27 37 -55 37 -62 0 -6 14 -38
32 -71 17 -33 35 -76 39 -95 13 -62 49 -153 67 -175 10 -11 25 -31 34 -45 24
-39 68 -189 68 -232 0 -22 9 -58 19 -81 10 -23 31 -73 46 -112 14 -38 35 -91
46 -117 10 -26 21 -66 24 -90 4 -32 13 -50 35 -69 27 -23 43 -27 182 -39 172
-16 206 -17 798 -19 457 -2 706 3 975 18 414 25 579 30 1041 29 308 0 498 3
510 9 25 13 85 24 152 28 80 5 81 8 82 224 0 175 -9 277 -31 349 -6 18 -13 59
-15 90 -7 85 -33 225 -43 235 -6 6 -39 5 -85 -2 -69 -10 -81 -9 -128 10 -33
13 -61 18 -77 13 -49 -13 -77 -14 -291 -19 -232 -6 -273 -8 -365 -24 -33 -6
-128 -11 -212 -11 -90 0 -154 -4 -158 -10 -7 -12 -45 -14 -45 -2 0 4 -15 16
-34 26 -33 17 -82 20 -306 14 -25 0 -193 0 -375 1 -262 2 -334 5 -352 16 -37
25 -46 74 -39 229 8 193 16 432 20 611 2 83 7 158 11 168 18 43 99 56 470 72
105 4 132 9 143 22 15 20 15 56 2 105 -13 44 0 78 29 78 29 0 38 -20 44 -93 7
-102 53 -140 158 -132 30 3 117 10 194 16 77 7 203 13 280 14 128 1 144 0 183
-21 35 -19 48 -21 72 -12 35 12 38 29 9 69 -14 19 -19 38 -15 53 5 21 14 24
74 30 115 11 146 -14 140 -111 l-3 -56 40 -14 c22 -7 60 -12 85 -11 l45 3 -1
55 c0 30 -4 66 -7 80 -7 27 -26 125 -34 175 -7 47 -11 67 -21 115 -6 25 -16
92 -23 150 -6 58 -16 116 -22 130 -12 28 -14 36 -16 51 -2 20 -18 -1 -24 -31
-7 -33 -31 -39 -69 -19 -12 6 -51 15 -87 19 -62 8 -67 11 -116 63 -29 31 -65
59 -86 66 -50 16 -145 19 -142 4 3 -14 -22 -36 -45 -40 -116 -19 -142 -27
-147 -44 -4 -11 -15 -24 -26 -29 -10 -6 -19 -17 -19 -25 0 -8 -8 -15 -17 -15
-22 0 -64 124 -63 187 0 41 -1 43 -37 51 -54 13 -210 7 -229 -8 -8 -7 -13 -18
-11 -24 2 -6 0 -44 -4 -84 -6 -54 -17 -89 -40 -130 -17 -31 -37 -60 -43 -64
-6 -4 -69 -6 -140 -3 -71 2 -165 -1 -210 -6 -93 -12 -566 -21 -641 -13 -69 8
-94 43 -97 138 -3 63 -1 69 25 92 22 19 38 24 76 22 27 -1 55 3 63 10 8 6 21
38 28 69 9 45 21 66 50 94 21 20 51 40 66 43 16 4 49 21 73 38 25 17 61 32 79
34 18 1 40 8 48 15 19 16 19 89 0 89 -8 0 -17 -4 -20 -9 -10 -16 -71 -18 -102
-3 -29 14 -34 13 -77 -12 -45 -27 -46 -27 -103 -12 -31 8 -60 20 -64 26 -4 7
-10 -10 -13 -36 -3 -29 -12 -53 -23 -61 -45 -33 -150 -27 -197 10 -26 22 -27
27 -31 137 -2 63 -8 126 -13 140 -5 14 -8 127 -7 252 3 253 2 255 -59 236 -69
-21 -97 19 -97 139 0 64 -11 88 -48 107 -54 28 -74 -13 -78 -160 -3 -85 0
-129 15 -185 10 -41 20 -78 21 -84 6 -27 -2 -46 -24 -56 -20 -9 -26 -23 -34
-73 -19 -111 -40 -397 -47 -631 -3 -96 -51 -413 -85 -562 -6 -23 -10 -64 -10
-92 0 -54 -9 -66 -40 -56 -15 5 -20 15 -20 43 0 20 -16 72 -35 116 -18 43 -37
92 -40 110 -19 91 -137 352 -246 542 -99 171 -145 301 -172 479 -15 99 -52
255 -68 287 -11 21 -19 44 -19 53 0 23 -49 117 -58 111 -5 -3 -21 -30 -37 -60
-19 -37 -35 -56 -48 -56 -21 0 -52 -63 -42 -88 3 -8 8 -12 12 -9 3 4 12 -5 20
-19 16 -33 16 -34 -3 -34 -10 0 -14 6 -11 15 4 8 2 17 -3 20 -6 4 -10 -1 -10
-11 0 -12 -6 -15 -25 -12 -27 6 -68 -17 -91 -51 -14 -19 -17 -20 -43 -6 -29
14 -40 42 -44 110 -2 24 2 31 21 33 33 5 27 22 -8 22 -24 0 -30 4 -30 23 0 12
-4 28 -9 36 -13 21 14 70 44 81 34 13 31 38 -6 71 -27 24 -29 30 -19 51 7 12
21 30 33 39 12 10 17 21 12 29 -6 10 -10 9 -17 -4 -11 -19 -26 -12 -38 18 -8
19 -9 19 -9 -6 -1 -30 -10 -35 -29 -16 -17 17 -15 28 4 28 12 0 11 6 -8 33
-26 37 -28 76 -9 202 12 77 52 177 88 217 9 10 31 20 50 24 l34 6 -4 137 c-4
158 -22 292 -44 339 -13 27 -32 41 -92 69 -184 85 -353 147 -366 135z m986
-2399 c10 -26 20 -105 21 -165 1 -15 -7 -37 -16 -50 -9 -13 -28 -38 -41 -57
-25 -34 -25 -34 -25 -8 0 14 -5 29 -11 32 -6 5 -8 30 -5 71 19 213 14 196 59
203 4 0 12 -11 18 -26z m3583 -2106 c25 -17 26 -20 13 -40 -15 -22 -22 -23
-86 -16 -32 4 -35 2 -52 -41 -9 -25 -20 -58 -24 -73 -7 -33 -53 -80 -71 -73
-7 3 -26 -2 -43 -10 -19 -10 -42 -12 -69 -8 -41 6 -52 20 -52 71 0 15 -10 28
-29 37 -41 21 -91 5 -171 -56 -64 -48 -66 -49 -120 -43 -30 4 -89 9 -130 11
-80 5 -100 17 -100 61 0 84 96 160 220 175 41 5 95 12 120 17 25 4 162 7 305
7 235 -1 264 -3 289 -19z m-159 -372 c15 -20 24 -43 21 -50 -6 -17 -22 -20
-31 -5 -3 6 -21 10 -39 10 -19 0 -39 7 -46 15 -11 13 -14 13 -24 1 -6 -7 -23
-21 -37 -30 -25 -16 -27 -15 -53 9 -45 41 -32 59 46 65 36 3 70 8 74 13 20 19
62 6 89 -28z"/>
<path d="M19081 5498 c-8 -13 -18 -36 -22 -53 -14 -57 -60 -180 -84 -226 -27
-51 -33 -99 -12 -99 18 0 71 57 93 100 10 19 21 58 25 85 4 28 14 76 23 108
19 70 20 107 3 107 -7 0 -18 -10 -26 -22z"/>
<path d="M11950 5446 c0 -48 -22 -78 -77 -102 -29 -13 -53 -27 -53 -31 0 -5
-9 -14 -20 -21 -31 -19 -72 7 -89 55 -16 44 -26 53 -62 53 -24 0 -28 -6 -40
-56 -11 -41 -21 -59 -41 -72 -26 -15 -29 -15 -55 4 -24 18 -29 32 -37 88 -13
104 -56 80 -61 -34 -3 -74 -11 -97 -37 -104 -30 -7 -56 18 -69 68 -19 73 -31
111 -41 124 -14 17 -57 15 -64 -3 -4 -8 -19 -15 -35 -15 -39 0 -55 -31 -33
-65 9 -14 22 -25 30 -25 15 0 59 -45 80 -82 28 -48 53 -104 58 -128 8 -38 41
-85 79 -114 33 -25 35 -25 66 -10 39 19 69 13 104 -22 31 -31 47 -24 47 21 0
53 20 133 39 156 25 31 65 17 93 -32 12 -21 25 -39 29 -39 3 0 18 15 32 33 13
17 46 53 72 80 51 51 79 58 146 36 73 -23 77 -28 84 -90 6 -51 4 -62 -16 -91
-12 -18 -23 -34 -24 -36 -1 -1 -14 2 -29 7 -18 8 -26 18 -26 35 0 41 -21 41
-55 0 -18 -21 -31 -42 -28 -46 2 -5 21 -8 42 -8 33 0 40 -4 50 -29 7 -15 12
-53 12 -82 -1 -92 11 -229 20 -229 4 0 12 15 18 33 5 17 17 52 26 77 9 25 21
71 26 103 5 33 17 69 25 82 8 13 22 59 29 103 9 51 23 93 40 117 38 57 31 80
-15 55 -15 -8 -24 -6 -41 11 -18 18 -20 28 -14 92 l7 72 -44 13 c-23 8 -56 24
-73 36 -16 13 -40 26 -52 30 -20 6 -23 4 -23 -18z"/>
<path d="M13336 5437 c-14 -18 -30 -56 -36 -84 -13 -60 -34 -87 -83 -108 -49
-20 -58 -19 -101 10 -27 18 -44 23 -67 18 -34 -7 -69 -52 -69 -90 0 -12 -13
-51 -29 -85 -16 -35 -32 -83 -36 -108 -4 -25 -15 -54 -25 -65 -30 -34 -48 -75
-106 -235 -30 -85 -62 -171 -69 -190 -8 -19 -17 -55 -21 -79 -7 -46 -31 -124
-57 -183 -19 -43 -42 -124 -62 -218 -27 -124 -44 -189 -87 -325 -38 -120 -41
-139 -42 -245 l-1 -116 -37 -38 c-36 -37 -38 -42 -38 -105 0 -299 -23 -756
-41 -831 -6 -25 -10 -94 -8 -155 6 -178 -2 -436 -13 -464 -6 -14 -12 -102 -15
-196 -5 -222 -7 -219 107 -222 66 -2 99 2 150 19 56 20 83 22 196 20 77 -1
143 2 160 8 16 6 65 18 109 26 44 9 95 23 115 31 19 8 73 19 120 23 47 5 105
17 130 28 25 11 77 23 117 26 39 4 97 16 127 27 31 10 73 19 94 19 42 0 131
28 157 50 14 12 16 25 12 69 -3 29 -11 59 -16 64 -6 6 -11 40 -11 77 0 36 -7
94 -15 130 -8 36 -19 108 -25 160 -14 121 -25 197 -44 285 -8 39 -17 121 -20
183 -6 105 -21 236 -31 272 -2 8 -7 53 -10 100 -4 47 -18 164 -32 260 -14 96
-29 225 -33 286 -4 61 -14 135 -23 165 -8 30 -20 106 -26 169 -7 63 -16 142
-22 175 -5 33 -12 96 -13 140 -5 110 -22 273 -40 375 -8 47 -19 123 -25 170
-46 412 -88 731 -100 763 -14 36 -34 34 -65 -6z m-119 -1313 c13 -18 11 -39
-16 -119 -30 -88 -37 -97 -78 -89 -120 23 -161 139 -68 191 22 13 49 27 60 33
27 13 87 4 102 -16z m200 -256 c15 -7 34 -18 41 -25 9 -9 20 -9 38 -3 36 14
38 13 58 -20 l17 -30 -36 -16 c-28 -11 -40 -12 -51 -3 -21 17 -60 3 -96 -37
-38 -41 -67 -42 -81 -1 -5 16 -6 48 -2 73 5 34 12 47 33 59 34 18 44 18 79 3z
m-603 -678 c27 -22 54 -40 62 -40 20 0 38 -72 27 -106 l-10 -29 -144 0 -144 0
1 -50 c0 -27 11 -85 24 -128 l23 -78 -20 -27 c-16 -22 -29 -28 -70 -30 -66 -4
-97 9 -116 51 -22 46 -25 183 -4 223 8 16 18 43 21 59 4 18 18 36 34 46 15 8
34 29 42 45 34 69 50 83 113 103 73 22 93 17 161 -39z m740 -209 c3 -5 -1 -28
-9 -51 -8 -23 -15 -60 -15 -82 0 -83 -53 -146 -66 -78 -4 17 -10 30 -15 30 -5
0 -9 11 -9 24 0 18 -9 27 -44 40 -48 18 -59 35 -50 72 9 34 37 46 87 39 35 -5
46 -3 61 14 14 15 23 18 37 11 10 -6 20 -14 23 -19z m-124 -255 c0 -18 40 -28
56 -15 9 7 18 2 33 -19 17 -25 19 -35 10 -66 -5 -20 -23 -50 -39 -66 -25 -26
-29 -37 -28 -76 2 -38 -2 -50 -21 -65 -27 -22 -42 -15 -64 29 -17 35 -31 37
-45 7 -8 -17 -20 -25 -37 -25 -25 0 -36 25 -14 32 7 2 12 35 13 85 2 79 21
133 46 133 6 0 10 7 10 15 0 8 7 15 15 15 8 0 23 9 32 19 17 21 33 19 33 -3z"/>
<path d="M14616 5298 c-32 -74 -80 -355 -81 -473 0 -60 3 -70 18 -73 33 -7 77
20 107 64 17 23 37 50 46 59 14 13 17 43 18 178 1 129 5 170 19 201 9 21 17
42 17 46 0 9 -71 30 -104 30 -20 0 -30 -8 -40 -32z"/>
<path d="M6747 5183 c-4 -3 -7 -19 -7 -35 0 -21 8 -33 33 -47 58 -35 67 -50
67 -112 0 -60 13 -79 55 -79 25 0 28 24 15 131 l-13 101 -43 -6 c-49 -6 -74 0
-74 19 0 16 -25 37 -33 28z"/>
<path d="M7092 5058 c-5 -7 -13 -34 -17 -59 -7 -49 7 -92 40 -119 33 -28 47
-72 46 -146 -1 -40 3 -85 9 -99 10 -26 12 -26 73 -20 46 5 73 3 99 -8 30 -13
49 -13 108 -4 55 8 79 8 106 -2 28 -10 46 -10 85 -1 78 19 99 -2 124 -124 6
-28 7 -29 63 -23 94 9 156 26 186 52 44 38 63 40 105 11 79 -55 99 -27 101
139 2 66 -1 152 -5 190 -5 53 -3 81 9 115 12 36 13 51 4 78 -12 31 -34 41 -53
23 -10 -9 -142 -46 -230 -64 -27 -5 -86 -20 -129 -33 -44 -13 -90 -24 -102
-24 -35 0 -143 -80 -143 -107 -2 -62 -38 -72 -64 -18 -9 19 -23 35 -31 35 -9
0 -20 9 -26 20 -6 12 -21 20 -36 20 -51 0 -82 34 -89 100 -7 60 -41 101 -59
71 -11 -17 -96 -21 -126 -6 -35 18 -35 18 -48 3z"/>
<path d="M9916 5052 c-3 -5 -5 -71 -5 -148 0 -144 18 -375 44 -549 8 -55 22
-163 30 -240 15 -145 34 -234 49 -235 4 -1 15 14 25 32 21 44 66 50 100 14 21
-23 23 -32 23 -163 -1 -76 -1 -151 -1 -168 -3 -80 11 -151 34 -175 51 -56 59
-113 24 -179 l-21 -40 23 -32 c20 -28 23 -48 27 -148 3 -99 9 -130 38 -216 38
-114 60 -305 50 -436 -11 -125 -11 -153 -3 -194 6 -29 4 -45 -6 -59 -13 -18
-15 -18 -40 -1 -24 15 -27 16 -33 1 -3 -9 -3 -37 0 -63 4 -27 6 -78 6 -114 -1
-42 5 -82 15 -105 11 -25 18 -79 21 -154 2 -63 9 -146 14 -185 9 -66 21 -206
35 -390 10 -127 22 -161 67 -197 37 -29 40 -34 35 -71 -3 -22 -14 -52 -25 -66
-24 -33 -42 -86 -42 -122 0 -21 7 -32 28 -42 23 -12 39 -12 117 4 50 10 137
21 195 25 57 3 123 13 145 21 22 9 65 21 95 28 71 17 134 41 168 63 59 38 138
121 188 198 29 45 75 99 101 122 64 53 102 130 86 173 -7 18 -8 42 -3 62 4 17
11 138 14 268 3 130 12 274 20 320 8 46 17 134 20 194 4 61 11 139 17 175 6
36 12 146 14 245 1 122 7 199 18 240 12 46 14 81 8 153 -5 51 -13 98 -20 105
-8 8 -11 3 -11 -20 0 -39 -43 -93 -74 -93 -13 0 -31 -9 -41 -20 -10 -11 -29
-20 -42 -20 -13 0 -53 -9 -89 -21 -82 -27 -120 -16 -130 37 -3 18 -4 39 -1 46
2 7 -2 25 -9 39 -17 35 -64 44 -113 23 -95 -42 -97 -45 -49 -59 41 -13 46 -30
12 -51 -25 -17 -27 -17 -39 -1 -7 9 -17 17 -23 17 -6 0 -12 5 -14 12 -8 22
-48 -30 -48 -61 0 -54 -16 -81 -50 -81 -31 0 -31 0 -45 80 -16 91 -17 118 -5
180 11 59 11 71 -5 103 -11 25 -15 48 -11 69 6 32 -14 68 -38 68 -14 0 -45 35
-55 63 -6 16 -3 30 11 50 31 43 67 37 133 -23 56 -51 81 -59 114 -38 42 26
121 -46 121 -110 0 -24 27 -48 62 -57 15 -4 44 -22 65 -41 20 -19 47 -34 60
-34 21 0 22 3 16 47 -6 46 -5 48 36 83 l42 36 -21 27 c-24 31 -20 61 13 87 28
23 18 43 -68 135 -41 44 -85 95 -98 112 -12 18 -37 40 -55 50 -32 18 -33 18
-50 -4 -12 -15 -36 -25 -82 -33 -35 -6 -84 -19 -109 -27 -25 -8 -68 -19 -96
-24 -139 -23 -203 -37 -237 -49 -52 -19 -88 -3 -88 40 0 52 15 68 77 80 32 7
64 17 70 22 8 6 12 32 12 64 -2 64 13 86 53 82 29 -3 49 -29 75 -98 l10 -25
42 47 c31 33 52 48 79 52 81 14 92 18 92 33 0 15 -62 100 -130 179 -19 22 -64
76 -100 119 -36 44 -82 94 -102 113 -21 19 -59 64 -85 102 -77 109 -208 264
-237 279 -20 11 -29 12 -38 3 -20 -20 -85 -15 -108 8 -23 23 -28 108 -9 127
16 16 -26 88 -72 125 -36 29 -38 29 -67 14 -17 -9 -39 -16 -50 -16 -17 0 -49
28 -66 57 -8 14 20 73 34 73 18 0 10 36 -13 58 -24 23 -42 28 -51 14z m1476
-2555 c21 -11 24 -17 16 -37 -16 -43 -3 -54 35 -31 40 24 75 18 83 -14 10 -40
0 -59 -35 -69 -30 -9 -36 -7 -57 17 -13 15 -25 27 -27 27 -2 0 -12 -18 -22
-40 -11 -25 -25 -40 -36 -40 -9 0 -24 -3 -32 -6 -43 -16 -69 84 -37 146 30 58
63 73 112 47z"/>
<path d="M11875 4982 c-6 -4 -26 -27 -45 -52 -19 -25 -47 -58 -62 -73 -16 -16
-28 -32 -28 -37 0 -17 -58 -45 -105 -50 -39 -4 -50 -9 -49 -22 2 -18 43 -76
132 -184 61 -74 91 -82 133 -38 22 24 24 35 30 172 4 86 2 155 -3 166 -7 13
-5 32 7 63 17 43 11 70 -10 55z"/>
<path d="M9390 4851 c-17 -19 -39 -31 -68 -36 -43 -7 -53 -23 -28 -44 21 -18
39 -96 34 -146 -3 -25 -2 -45 3 -45 12 0 49 42 49 55 0 6 12 23 28 37 22 21
40 27 91 30 80 6 95 21 86 93 -10 76 -14 88 -33 79 -22 -9 -47 -10 -97 -1 -36
6 -43 4 -65 -22z"/>
<path d="M1910 4848 c0 -10 5 -18 10 -18 6 0 8 -15 6 -32 -5 -41 25 -160 61
-241 34 -78 32 -76 49 -53 22 31 19 160 -6 211 -26 54 -119 157 -120 133z"/>
<path d="M8770 4645 c0 -5 7 -17 17 -27 15 -17 15 -18 -10 -18 -15 0 -27 -5
-27 -11 0 -7 9 -9 24 -5 18 4 31 -3 60 -35 34 -39 36 -44 36 -111 0 -83 16
-112 85 -152 89 -53 394 -63 427 -15 5 8 7 58 4 113 l-6 98 -47 52 c-26 28
-54 56 -63 63 -31 23 -500 68 -500 48z"/>
<path d="M11974 4537 c-17 -15 -37 -40 -44 -57 -7 -17 -22 -33 -36 -36 -36 -9
-50 -31 -32 -52 8 -9 25 -43 38 -74 28 -73 46 -75 55 -5 4 28 18 84 32 123 13
39 23 84 21 99 l-3 28 -31 -26z"/>
<path d="M7191 4273 c-5 -10 -7 -105 -4 -233 4 -184 7 -219 22 -240 27 -38 58
-38 66 -1 3 16 24 49 45 73 38 43 38 44 28 95 -17 85 9 137 49 98 12 -13 17
-35 17 -87 1 -61 4 -72 25 -89 49 -39 81 -18 81 53 0 27 7 65 15 85 8 19 15
54 15 77 l0 42 -62 -4 c-35 -2 -72 -9 -83 -15 -10 -5 -20 -6 -22 -1 -40 107
-47 116 -107 140 -71 29 -72 29 -85 7z"/>
<path d="M19245 3920 c-16 -11 -39 -20 -50 -20 -12 0 -45 -16 -75 -35 -30 -19
-59 -35 -64 -35 -4 0 -21 -11 -38 -25 -16 -14 -35 -25 -42 -25 -7 0 -21 -9
-31 -20 -9 -10 -35 -29 -57 -40 -22 -12 -47 -27 -55 -35 -8 -8 -21 -15 -29
-15 -8 0 -41 -24 -73 -52 -87 -78 -137 -117 -184 -144 -70 -39 -95 -72 -103
-134 -12 -112 35 -149 75 -58 52 120 133 205 259 273 29 16 65 40 80 54 65 61
284 211 308 211 8 0 22 9 31 20 10 11 24 20 32 20 22 0 112 61 105 71 -9 16
-58 10 -89 -11z"/>
<path d="M18467 3803 c-2 -4 -7 -51 -11 -104 -6 -83 -5 -98 10 -110 15 -12 22
-8 62 36 55 61 89 130 73 149 -6 8 -28 16 -49 20 -20 3 -47 9 -58 12 -12 3
-24 2 -27 -3z"/>
<path d="M17714 3395 c-6 -15 -5 -21 16 -105 24 -93 -6 -267 -63 -370 -89
-160 -487 -557 -671 -669 -30 -18 -60 -39 -67 -47 -29 -35 96 -38 299 -5 29 4
87 9 130 10 135 4 348 43 411 76 17 8 44 15 61 15 17 0 71 14 120 30 49 17 95
30 102 30 32 0 53 43 52 107 0 34 -6 68 -12 75 -6 8 -16 36 -22 63 -6 28 -14
59 -19 70 -5 11 -25 54 -45 95 -19 41 -48 116 -65 165 -55 162 -68 199 -102
275 -31 71 -106 200 -115 200 -3 0 -7 -7 -10 -15z"/>
<path d="M14116 2834 c-7 -19 9 -162 29 -254 21 -93 34 -208 39 -340 3 -63 12
-146 20 -185 9 -38 16 -95 16 -125 1 -72 21 -165 49 -217 18 -35 26 -43 50
-43 15 0 46 12 67 26 33 23 45 26 92 21 37 -4 64 -1 90 10 40 17 159 36 337
53 108 10 155 20 205 45 40 20 130 45 195 54 173 26 285 57 285 81 0 23 -94
47 -210 55 -75 5 -91 8 -210 43 -71 20 -130 48 -130 61 0 4 -36 25 -80 45 -76
34 -203 110 -262 156 -17 13 -39 20 -55 18 -32 -3 -35 -18 -6 -33 10 -5 35
-27 53 -49 l34 -38 -23 -19 c-36 -29 -66 -24 -91 15 -27 45 -52 52 -98 28 -59
-30 -67 -14 -67 134 l0 121 -105 115 c-58 63 -127 143 -153 177 -52 65 -61 71
-71 45z"/>
<path d="M16795 1773 c-120 -33 -236 -54 -325 -58 -53 -3 -114 -11 -136 -19
-22 -7 -64 -17 -94 -20 -30 -4 -82 -16 -115 -25 -33 -10 -96 -26 -140 -36 -80
-17 -110 -26 -220 -63 -33 -11 -87 -25 -120 -32 -33 -6 -70 -16 -83 -21 -13
-5 -40 -9 -61 -9 -47 0 -132 -25 -142 -42 -12 -19 -11 -82 2 -115 25 -63 59
-190 59 -220 0 -18 11 -67 25 -109 14 -42 25 -88 25 -103 0 -14 6 -38 14 -53
8 -15 21 -61 30 -102 8 -41 25 -100 36 -133 12 -32 25 -94 30 -138 5 -44 12
-91 14 -105 3 -14 8 -50 12 -80 6 -56 57 -217 74 -234 12 -12 30 2 30 24 0 10
14 28 30 40 28 20 35 21 78 11 26 -6 73 -9 104 -7 32 3 60 0 64 -5 8 -14 -15
-39 -36 -39 -20 0 -100 -56 -100 -70 0 -7 76 -9 218 -8 l217 3 3 24 c2 14 19
45 38 69 19 25 34 49 34 54 0 16 65 140 145 278 64 110 59 160 -19 185 -49 16
-48 54 3 89 35 25 46 27 86 22 41 -7 48 -5 75 22 16 16 32 42 35 58 4 16 14
47 23 69 20 45 22 161 8 346 -9 125 -5 148 51 259 13 25 23 48 23 53 0 4 20
40 44 80 52 86 74 143 61 156 -19 17 -50 18 -100 4z m-779 -1241 c28 -19 44
-59 44 -109 0 -79 -12 -100 -62 -113 -24 -5 -74 -20 -113 -32 -82 -26 -124
-25 -146 1 -21 26 -31 105 -19 150 16 62 31 74 91 77 30 2 79 10 109 18 64 17
81 19 96 8z"/>
<path d="M13797 1185 c-21 -8 -66 -19 -100 -25 -34 -6 -86 -20 -115 -31 -29
-10 -73 -19 -99 -19 -44 0 -219 -42 -256 -62 -10 -5 -61 -16 -114 -24 -53 -7
-102 -19 -108 -24 -7 -6 -46 -15 -86 -20 -122 -16 -189 -30 -228 -47 -26 -11
-68 -16 -148 -17 -92 -1 -115 -4 -130 -18 -16 -17 -16 -19 7 -43 15 -16 52
-34 95 -47 38 -11 97 -36 130 -54 33 -18 85 -42 115 -53 110 -41 344 -268 453
-439 27 -42 62 -90 77 -107 33 -34 60 -93 60 -130 l0 -25 414 0 414 0 -3 23
c-24 169 -39 245 -69 368 -20 81 -40 175 -45 210 -5 35 -16 105 -25 154 -9 50
-18 106 -20 125 -24 181 -39 242 -67 290 -17 27 -24 30 -66 29 -27 0 -65 -7
-86 -14z"/>
<path d="M3730 508 c-40 -26 -69 -58 -70 -76 0 -6 -11 -35 -25 -64 -14 -28
-25 -62 -25 -74 0 -13 -4 -25 -9 -28 -13 -8 -24 -157 -16 -216 l7 -50 377 0
377 0 -1 195 c-2 246 11 226 -170 259 -44 8 -93 19 -109 26 -16 6 -35 9 -42 6
-6 -2 -31 2 -55 11 -49 17 -69 21 -149 29 -46 4 -61 1 -90 -18z"/>
<path d="M6270 179 c-21 -7 -28 -21 -43 -82 -9 -39 -17 -78 -17 -84 0 -10 97
-13 451 -13 l451 0 -6 38 c-9 46 -34 83 -72 101 -31 16 -81 19 -344 26 -96 2
-188 6 -205 9 -69 11 -192 14 -215 5z"/>
<path d="M10062 149 c-13 -5 -92 -11 -175 -14 -174 -5 -176 -6 -161 -82 l9
-48 193 -3 c105 -1 192 1 193 5 0 5 3 17 5 28 26 111 8 143 -64 114z"/>
<path d="M9288 140 c-211 -9 -230 -14 -247 -77 -6 -21 -11 -44 -11 -50 0 -10
63 -13 283 -13 l282 0 37 58 38 57 -38 17 c-41 18 -59 19 -344 8z"/>
</g>
</svg>
